<svg width="32" height="32" viewBox="0 0 32 32" fill="none" xmlns="http://www.w3.org/2000/svg">
<path d="M18.2857 2.13333C18.2857 0.953333 17.2643 0 16 0C14.7357 0 13.7143 0.953333 13.7143 2.13333V16.18L10.7571 13.42C9.86429 12.5867 8.41429 12.5867 7.52143 13.42C6.62857 14.2533 6.62857 15.6067 7.52143 16.44L14.3786 22.84C15.2714 23.6733 16.7214 23.6733 17.6143 22.84L24.4714 16.44C25.3643 15.6067 25.3643 14.2533 24.4714 13.42C23.5786 12.5867 22.1286 12.5867 21.2357 13.42L18.2857 16.18V2.13333ZM4.57143 21.3333C2.05 21.3333 0 23.2467 0 25.6V27.7333C0 30.0867 2.05 32 4.57143 32H27.4286C29.95 32 32 30.0867 32 27.7333V25.6C32 23.2467 29.95 21.3333 27.4286 21.3333H24.0786L20.0357 25.1067C17.8071 27.1867 14.1857 27.1867 11.9571 25.1067L7.92143 21.3333H4.57143ZM26.2857 25.0667C27.2357 25.0667 28 25.78 28 26.6667C28 27.5533 27.2357 28.2667 26.2857 28.2667C25.3357 28.2667 24.5714 27.5533 24.5714 26.6667C24.5714 25.78 25.3357 25.0667 26.2857 25.0667Z" fill="#BD42B2"/>
</svg>
