<svg width="49" height="40" viewBox="0 0 49 40" fill="none" xmlns="http://www.w3.org/2000/svg">
<path d="M23.0431 0H42.564C44.0741 0 45.4483 0.619004 46.441 1.61176C47.4337 2.60637 48.0527 3.97856 48.0527 5.48871V33.6262C48.0527 35.1364 47.4337 36.5105 46.441 37.5032C45.4463 38.4959 44.0741 39.1149 42.564 39.1149H23.0431C21.5329 39.1149 20.1588 38.4959 19.1661 37.5032C18.1734 36.5086 17.5544 35.1364 17.5544 33.6262V5.48871C17.5544 3.97856 18.1734 2.60446 19.1661 1.61176C20.1607 0.619053 21.5329 0 23.0431 0ZM13.9364 13.7906C14.4864 13.5089 15.1648 13.7273 15.4446 14.2793C15.7263 14.8312 15.5078 15.5077 14.9559 15.7875C14.2621 16.1421 13.6776 16.6863 13.2713 17.3513C12.8804 17.9895 12.6543 18.7446 12.6543 19.5553C12.6543 20.3659 12.8804 21.1191 13.2713 21.7592C13.6776 22.4242 14.2621 22.9684 14.9559 23.323C15.5078 23.6047 15.7263 24.2793 15.4446 24.8312C15.1629 25.3832 14.4864 25.6016 13.9364 25.3199C12.8689 24.7737 11.9739 23.942 11.3549 22.9282C10.7512 21.9412 10.4044 20.7875 10.4044 19.5533C10.4044 18.3192 10.7512 17.1654 11.3549 16.1785C11.9739 15.1647 12.8689 14.3329 13.9364 13.7867V13.7906ZM14.6761 30.0936C15.2836 30.2201 15.6746 30.8142 15.5481 31.4217C15.4235 32.0292 14.8275 32.4202 14.22 32.2936C13.67 32.1786 13.1429 32.0349 12.6428 31.8624C12.133 31.6861 11.629 31.4734 11.1307 31.2281C10.9467 31.138 10.7532 31.1092 10.5711 31.138C10.3948 31.1667 10.2223 31.2568 10.0748 31.4025L9.70297 31.7743C9.08397 32.3933 8.27328 32.7018 7.46265 32.7018C6.65201 32.7018 5.83941 32.3933 5.22232 31.7743L4.66656 31.2185C4.04755 30.6014 3.73901 29.7888 3.73901 28.9782C3.73901 28.1694 4.04756 27.3607 4.66656 26.7417L5.03835 26.3699C5.184 26.2242 5.27407 26.0498 5.30282 25.8697C5.33156 25.6896 5.30473 25.4922 5.21275 25.3101C5.08434 25.0495 4.96744 24.7908 4.86012 24.5359C4.7528 24.2752 4.65314 24.0089 4.55924 23.7386C4.49408 23.547 4.37718 23.3918 4.22769 23.2844C4.08013 23.179 3.89423 23.1177 3.69106 23.1177H3.16787C2.29591 23.1177 1.5025 22.7612 0.929462 22.1882C0.354515 21.6152 0 20.8218 0 19.9498V19.1622C0 18.2902 0.356458 17.4968 0.929462 16.9237C1.50441 16.3488 2.29591 15.9943 3.16787 15.9943H3.69106C3.89612 15.9943 4.08202 15.9349 4.22769 15.8276C4.37718 15.7202 4.49408 15.565 4.55924 15.3734C4.65123 15.1031 4.75088 14.8367 4.86012 14.5761C4.96552 14.3212 5.08434 14.0644 5.21275 13.8019C5.30282 13.6179 5.33157 13.4243 5.30282 13.2423C5.27407 13.066 5.184 12.8935 5.03835 12.7478L4.98085 12.6865L4.67039 12.3761L4.66847 12.3799C4.04947 11.7609 3.74092 10.9502 3.74092 10.1396H3.74476C3.74476 9.32893 4.05331 8.51824 4.66657 7.90307L4.6704 7.89923L4.66657 7.8954L5.22424 7.33964C5.84133 6.72063 6.65393 6.41209 7.46457 6.41209C8.27329 6.41209 9.08206 6.72064 9.70107 7.33964L10.0748 7.71335L10.0786 7.70951C10.2262 7.85708 10.3987 7.94716 10.575 7.97398C10.7551 8.00273 10.9525 7.9759 11.1346 7.88391C11.6309 7.63861 12.1369 7.42588 12.6466 7.25146C13.1468 7.07898 13.6739 6.93333 14.2238 6.81835C14.8314 6.69186 15.4254 7.0809 15.5519 7.69031C15.6784 8.29783 15.2894 8.89191 14.68 9.02031C14.2468 9.11038 13.8099 9.23303 13.3768 9.38252C12.9379 9.53391 12.522 9.70831 12.1292 9.90188C11.514 10.2047 10.849 10.2986 10.2147 10.1932C9.57456 10.0878 8.97086 9.78689 8.48795 9.30203L8.49178 9.30011L8.12191 8.93024C7.94559 8.75392 7.70795 8.66385 7.47033 8.66385C7.2346 8.66385 6.99888 8.75392 6.82257 8.93024L6.26681 9.486L6.26298 9.48217C6.08283 9.66232 5.99276 9.89804 5.99276 10.1318H5.99659C5.99659 10.3676 6.08475 10.6014 6.26298 10.7796L6.25914 10.7834L6.56961 11.0939L6.63093 11.1514C7.11388 11.6343 7.41478 12.238 7.52208 12.8781C7.62748 13.5124 7.53358 14.1774 7.23078 14.7926C7.13113 14.9957 7.03339 15.2085 6.93948 15.4346C6.84941 15.6512 6.767 15.8696 6.69226 16.0919C6.47186 16.7435 6.0656 17.2821 5.54236 17.6558C5.01917 18.0333 4.37907 18.2422 3.693 18.2422H3.16982C2.91876 18.2422 2.69071 18.3457 2.52398 18.5124C2.35725 18.6791 2.25376 18.9091 2.25376 19.1582V19.9459C2.25376 20.197 2.35725 20.425 2.52398 20.5918C2.69071 20.7585 2.92068 20.862 3.16982 20.862H3.693C4.37907 20.862 5.01726 21.0747 5.54236 21.4484C6.06555 21.824 6.47182 22.3606 6.69226 23.0122C6.767 23.2326 6.8494 23.453 6.93948 23.6695C7.03147 23.8957 7.12921 24.1084 7.22886 24.3116C7.53166 24.9267 7.62556 25.5918 7.52016 26.2261C7.41476 26.8643 7.11388 27.466 6.62902 27.9489L6.25723 28.3207C6.079 28.499 5.99084 28.7347 5.99084 28.9723C5.99084 29.208 6.079 29.4438 6.25723 29.6201L6.81299 30.1758C6.98931 30.3541 7.22502 30.4422 7.46074 30.4422C7.69646 30.4422 7.93027 30.3541 8.1085 30.1758L8.48029 29.804C8.96323 29.3211 9.56689 29.0202 10.207 28.9129C10.8414 28.8075 11.5063 28.9014 12.1215 29.2042C12.5144 29.3978 12.9302 29.5722 13.3691 29.7236C13.8042 29.873 14.2411 29.9957 14.6742 30.0858L14.6761 30.0936ZM24.9829 31.2607C24.36 31.2607 23.856 30.7567 23.856 30.1338C23.856 29.511 24.36 29.0069 24.9829 29.0069H40.625C41.2459 29.0069 41.7519 29.5109 41.7519 30.1338C41.7519 30.7547 41.2479 31.2607 40.625 31.2607H24.9829ZM24.9829 24.2808C24.36 24.2808 23.856 23.7768 23.856 23.1539C23.856 22.531 24.36 22.027 24.9829 22.027H40.625C41.2459 22.027 41.7519 22.531 41.7519 23.1539C41.7519 23.7748 41.2479 24.2808 40.625 24.2808H24.9829ZM24.9829 17.3009C24.36 17.3009 23.856 16.7969 23.856 16.174C23.856 15.5511 24.36 15.0471 24.9829 15.0471H40.625C41.2459 15.0471 41.7519 15.5511 41.7519 16.174C41.7519 16.7949 41.2479 17.3009 40.625 17.3009H24.9829ZM39.5574 2.25087L45.7995 8.49292V5.48601C45.7995 4.59678 45.4354 3.78806 44.8489 3.20163C44.2625 2.6152 43.4537 2.25107 42.5645 2.25107L39.5574 2.25087ZM45.7995 11.678L36.3724 2.25087H23.0435C22.1542 2.25087 21.3455 2.615 20.7591 3.20143C20.1727 3.78786 19.8085 4.59663 19.8085 5.48582V33.6233C19.8085 34.5126 20.1727 35.3213 20.7591 35.9077C21.3455 36.4941 22.1543 36.8583 23.0435 36.8583H42.5644C43.4536 36.8583 44.2623 36.4942 44.8488 35.9077C45.4352 35.3213 45.7993 34.5125 45.7993 33.6233L45.7995 11.678Z" fill="#BD42B2"/>
</svg>
