<svg width="92" height="89" viewBox="0 0 92 89" fill="none" xmlns="http://www.w3.org/2000/svg">
<path d="M38.9633 61.5172C34.8822 61.5172 31.5737 64.7064 31.5737 68.6403V81.5913C31.5737 85.5251 34.8822 88.7143 38.9633 88.7143H41.6504C45.7315 88.7143 49.04 85.5251 49.04 81.5913V80.2962C49.04 78.5154 47.5285 77.0584 45.6811 77.0584C43.8337 77.0584 42.3222 78.5154 42.3222 80.2962V81.5913C42.3222 81.9474 42.0199 82.2388 41.6504 82.2388H38.9633C38.5938 82.2388 38.2915 81.9474 38.2915 81.5913V68.6403C38.2915 68.2841 38.5938 67.9927 38.9633 67.9927H41.6504C42.0199 67.9927 42.3222 68.2841 42.3222 68.6403V69.9354C42.3222 71.7161 43.8337 73.1731 45.6811 73.1731C47.5285 73.1731 49.04 71.7161 49.04 69.9354V68.6403C49.04 64.7064 45.7315 61.5172 41.6504 61.5172H38.9633ZM61.8037 61.5172C56.9837 61.5172 53.0706 65.2892 53.0706 69.9354C53.0706 74.5815 56.9837 78.3535 61.8037 78.3535C62.9122 78.3535 63.8191 79.2277 63.8191 80.2962C63.8191 81.3646 62.9122 82.2388 61.8037 82.2388H56.4295C54.5821 82.2388 53.0706 83.6958 53.0706 85.4765C53.0706 87.2573 54.5821 88.7143 56.4295 88.7143H61.8037C66.6238 88.7143 70.5369 84.9423 70.5369 80.2962C70.5369 75.65 66.6238 71.878 61.8037 71.878C60.6953 71.878 59.7884 71.0038 59.7884 69.9354C59.7884 68.8669 60.6953 67.9927 61.8037 67.9927H65.8344C67.6818 67.9927 69.1933 66.5357 69.1933 64.755C69.1933 62.9742 67.6818 61.5172 65.8344 61.5172H61.8037ZM77.9264 61.5172C76.079 61.5172 74.5675 62.9742 74.5675 64.755V69.8706C74.5675 75.6176 76.3309 81.2513 79.6394 86.027L80.496 87.2735C81.1174 88.1801 82.1754 88.7143 83.2838 88.7143C84.3923 88.7143 85.4503 88.1801 86.0717 87.2735L86.9282 86.027C90.2367 81.2351 92.0002 75.6176 92.0002 69.8706V64.755C92.0002 62.9742 90.4887 61.5172 88.6413 61.5172C86.7939 61.5172 85.2824 62.9742 85.2824 64.755V69.8706C85.2824 73.0436 84.5938 76.168 83.267 79.0496C81.9403 76.168 81.2517 73.0436 81.2517 69.8706V64.755C81.2517 62.9742 79.7402 61.5172 77.8928 61.5172H77.9264Z" fill="white"/>
<path d="M32.869 9.92093H15.2059C13.8181 9.92093 12.6827 11.0394 12.6827 12.4065V72.0595C12.6827 73.4266 13.8181 74.5451 15.2059 74.5451H27.8224V82.0017H15.2059C9.63894 82.0017 5.11279 77.5433 5.11279 72.0595V12.4065C5.11279 6.92274 9.63894 2.46429 15.2059 2.46429H36.2596C38.9406 2.46429 41.5112 3.50512 43.4037 5.36927L62.7226 24.4148C64.6151 26.2789 65.6717 28.8111 65.6717 31.4519V54.6762H58.1018V34.7919H44.2237C37.9471 34.7919 32.869 29.7897 32.869 23.607V9.93646V9.92093ZM54.9635 27.3197L40.4388 13.0123V23.5914C40.4388 25.6575 42.1263 27.3197 44.2237 27.3197H54.9635Z" fill="white"/>
</svg>
