<svg width="41" height="33" viewBox="0 0 41 33" fill="none" xmlns="http://www.w3.org/2000/svg">
<g clip-path="url(#clip0_284_3503)">
<path d="M0.83125 0.235532C1.3375 -0.0207176 1.95 0.0355326 2.4 0.379283L22.4 15.373C22.9188 15.7605 23.125 16.4355 22.925 17.048C22.725 17.6605 22.15 18.073 21.5 18.073H11.9813L17.5375 29.1793C18.0312 30.1668 17.6312 31.3668 16.6437 31.8605C15.6562 32.3543 14.4562 31.9543 13.9625 30.9668L8.40625 19.8605L2.7 27.473C2.3125 27.9918 1.6375 28.198 1.025 27.998C0.4125 27.798 0 27.223 0 26.5793V1.57928C0 1.01053 0.31875 0.491782 0.83125 0.235532Z" fill="#BD42B2"/>
</g>
<path d="M27.7487 5.39693L32.0662 1.07935" stroke="#BD42B2" stroke-width="2.15879" stroke-linecap="round"/>
<path d="M34.225 16.1908H39.622" stroke="#BD42B2" stroke-width="2.15879" stroke-linecap="round"/>
<path d="M27.7487 26.9847L32.0662 31.3023" stroke="#BD42B2" stroke-width="2.15879" stroke-linecap="round"/>
<defs>
<clipPath id="clip0_284_3503">
<rect width="23" height="32" fill="white" transform="translate(0 0.0793457)"/>
</clipPath>
</defs>
</svg>
