<svg width="186" height="196" viewBox="0 0 186 196" fill="none" xmlns="http://www.w3.org/2000/svg">
<path d="M61.3413 17.0958H22.3059C19.2389 17.0958 16.7295 19.6602 16.7295 22.7944V159.561C16.7295 162.695 19.2389 165.259 22.3059 165.259H50.1884V182.355H22.3059C10.0028 182.355 0 172.133 0 159.561V22.7944C0 10.2219 10.0028 0 22.3059 0H68.8347C74.7598 0 80.4408 2.38629 84.6232 6.66024L127.318 50.3258C131.501 54.5997 133.836 60.4052 133.836 66.4599V119.706H117.106V74.1174H86.4355C72.564 74.1174 61.3413 62.649 61.3413 48.4737V17.1314V17.0958ZM110.17 56.986L78.0708 24.1834V48.4381C78.0708 53.1751 81.8001 56.986 86.4355 56.986H110.17ZM72.4943 135.342H83.6473C95.1836 135.342 104.559 144.923 104.559 156.711C104.559 168.5 95.1836 178.081 83.6473 178.081H79.4649V188.054C79.4649 191.972 76.3281 195.177 72.4943 195.177C68.6605 195.177 65.5237 191.972 65.5237 188.054V142.465C65.5237 138.547 68.6605 135.342 72.4943 135.342ZM83.6473 163.835C87.4811 163.835 90.6179 160.629 90.6179 156.711C90.6179 152.794 87.4811 149.588 83.6473 149.588H79.4649V163.835H83.6473ZM117.106 135.342H128.259C138.262 135.342 146.383 143.64 146.383 153.862V176.657C146.383 186.878 138.262 195.177 128.259 195.177H117.106C113.272 195.177 110.136 191.972 110.136 188.054V142.465C110.136 138.547 113.272 135.342 117.106 135.342ZM128.259 180.931C130.559 180.931 132.442 179.007 132.442 176.657V153.862C132.442 151.512 130.559 149.588 128.259 149.588H124.077V180.931H128.259ZM154.747 142.465C154.747 138.547 157.884 135.342 161.718 135.342H178.448C182.281 135.342 185.418 138.547 185.418 142.465C185.418 146.383 182.281 149.588 178.448 149.588H168.689V158.136H178.448C182.281 158.136 185.418 161.342 185.418 165.259C185.418 169.177 182.281 172.383 178.448 172.383H168.689V188.054C168.689 191.972 165.552 195.177 161.718 195.177C157.884 195.177 154.747 191.972 154.747 188.054V142.465Z" fill="white"/>
</svg>
