<svg width="316" height="314" viewBox="0 0 316 314" fill="none" xmlns="http://www.w3.org/2000/svg">
<g style="mix-blend-mode:luminosity" opacity="0.25">
<path d="M277.98 270.049C269.755 278.528 262.395 283.512 256.761 287.274C201.806 323.97 138.986 313.394 119.564 309.779C88.2285 303.946 61.7772 299.831 39.0507 279.298C-12.5907 232.639 -10.079 135.306 29.3814 75.0115C34.0602 67.8624 73.4608 9.455 136.416 1.22499C137.956 1.0237 139.105 0.909029 140.111 0.802502C149.85 -0.228722 210.201 -5.67118 259.412 35.5596C266.456 41.4615 277.792 52.1072 288.304 68.3436C326.742 127.711 326.864 219.658 277.98 270.049Z" fill="url(#paint0_linear_278_2176)"/>
<path d="M38.3888 12.6321C37.9588 11.3051 39.5061 10.2146 40.6243 11.0486C51.9791 19.517 79.9094 45.5663 79.4976 96.6847C78.9808 160.82 94.7822 182.405 112.785 194.621C112.785 194.621 89.5064 190.56 72.6713 168.749C31.3372 115.197 46.0333 36.2268 38.3888 12.6321Z" fill="#BDD0FB"/>
<path d="M48.4425 31.5032C50.5265 38.3997 52.4734 45.3335 54.164 52.3287C55.891 59.3137 57.4055 66.3479 58.6986 73.4192C59.9645 80.4949 61.0973 87.5933 61.9271 94.7292C62.7888 101.861 63.3432 109.022 63.8748 116.213C64.4462 123.398 64.9809 130.639 66.2587 137.847C67.5271 145.041 69.6746 152.199 73.0665 158.753C73.9138 160.386 74.7942 162.01 75.7615 163.566C76.7004 165.141 77.7092 166.674 78.7451 168.189C80.8323 171.209 83.1237 174.095 85.6187 176.799C90.6233 182.193 96.4456 186.822 102.708 190.587C103.367 190.984 104.223 190.771 104.619 190.111C105.008 189.464 104.81 188.628 104.178 188.222L104.174 188.219C102.677 187.26 101.192 186.286 99.7563 185.248C99.0299 184.74 98.3276 184.202 97.6154 183.677C96.9241 183.125 96.2109 182.6 95.5373 182.028C92.805 179.785 90.2333 177.353 87.8543 174.742C83.0758 169.551 79.0485 163.618 75.7971 157.363C74.2063 154.216 72.8502 150.958 71.7494 147.606C70.6511 144.253 69.8088 140.81 69.1622 137.317C67.868 130.327 67.2795 123.165 66.6566 115.985C66.0242 108.804 65.3392 101.593 64.3588 94.4206C63.8783 90.8336 63.3333 87.2558 62.7246 83.6895C62.4305 81.9047 62.1019 80.1259 61.7766 78.3468C61.4341 76.5708 61.082 74.7969 60.7154 73.0263C59.236 65.9462 57.5412 58.9146 55.6267 51.9464C53.6788 44.9875 51.5468 38.0825 49.1525 31.2713C49.084 31.0766 48.8708 30.9743 48.6761 31.0428C48.4872 31.1092 48.3855 31.3133 48.4425 31.5032Z" fill="white"/>
<path d="M94.2487 231.86C93.8029 234.391 90.9168 235.645 88.7447 234.271C76.7593 226.689 44.8107 202.19 39.0268 153.575C34.1426 112.522 27.5928 90.7252 23.9337 81.0364C23.16 78.9876 25.4516 77.1419 27.2908 78.3307C47.5829 91.447 110.403 140.138 94.2487 231.86Z" fill="#91B3FA"/>
<path d="M90.8242 232.48C90.7779 232.524 90.727 232.563 90.6711 232.599C90.2034 232.896 89.5832 232.758 89.286 232.29C88.949 231.76 55.4818 178.616 46.112 121.841C46.022 121.295 46.3919 120.779 46.9388 120.688C47.4857 120.598 48.0021 120.968 48.0925 121.515C57.3941 177.876 90.6451 230.687 90.9798 231.214C91.2417 231.626 91.1656 232.156 90.8242 232.48Z" fill="#BDD0FB"/>
<path d="M150.965 8.59027C151.333 7.03221 150.368 5.47091 148.81 5.103C147.252 4.7351 145.691 5.69991 145.323 7.25798C144.955 8.81604 145.92 10.3773 147.478 10.7452C149.036 11.1132 150.597 10.1483 150.965 8.59027Z" fill="white"/>
<path d="M239.752 166.644C259.544 166.644 275.589 150.599 275.589 130.807C275.589 111.014 259.544 94.9692 239.752 94.9692C219.959 94.9692 203.914 111.014 203.914 130.807C203.914 150.599 219.959 166.644 239.752 166.644Z" fill="white"/>
<path d="M274.402 177.403H97.7967C92.8767 177.403 88.8882 173.415 88.8882 168.495V57.3783C88.8882 52.4582 92.8767 48.4697 97.7967 48.4697H274.402C279.322 48.4697 283.311 52.4582 283.311 57.3783V168.495C283.311 173.415 279.322 177.403 274.402 177.403Z" fill="#91B3FA"/>
<path opacity="0.52" d="M93.0071 150.605C92.7407 150.605 92.5246 150.389 92.5246 150.123V61.7871C92.5246 56.4065 96.9023 52.0288 102.283 52.0288H145.456C145.722 52.0288 145.938 52.2449 145.938 52.5113C145.938 52.7777 145.722 52.9938 145.456 52.9938H102.283C97.4344 52.9938 93.4897 56.9385 93.4897 61.7871V150.123C93.4896 150.389 93.2735 150.605 93.0071 150.605Z" fill="white"/>
<path opacity="0.52" d="M269.59 173.579H222.384C222.117 173.579 221.901 173.363 221.901 173.097C221.901 172.83 222.117 172.614 222.384 172.614H269.59C274.438 172.614 278.383 168.67 278.383 163.821V144.378C278.383 144.111 278.599 143.895 278.866 143.895C279.132 143.895 279.348 144.111 279.348 144.378V163.821C279.348 169.202 274.971 173.579 269.59 173.579Z" fill="white"/>
<path opacity="0.52" d="M278.866 135.245C278.599 135.245 278.383 135.029 278.383 134.762V127.989C278.383 127.722 278.599 127.506 278.866 127.506C279.132 127.506 279.348 127.722 279.348 127.989V134.762C279.348 135.029 279.132 135.245 278.866 135.245Z" fill="white"/>
<path opacity="0.52" d="M180.4 52.9938H158.407C158.14 52.9938 157.924 52.7777 157.924 52.5113C157.924 52.2449 158.14 52.0288 158.407 52.0288H180.4C180.666 52.0288 180.883 52.2449 180.883 52.5113C180.883 52.7777 180.666 52.9938 180.4 52.9938Z" fill="white"/>
<path opacity="0.52" d="M191.438 66.3653H99.0062C98.5841 66.3653 98.2418 66.023 98.2418 65.6009V61.5153C98.2418 61.0932 98.5841 60.751 99.0062 60.751H191.438C191.86 60.751 192.202 61.0932 192.202 61.5153V65.6009C192.202 66.023 191.86 66.3653 191.438 66.3653Z" fill="white"/>
<path opacity="0.52" d="M191.672 75.9561H99.2402C98.8181 75.9561 98.4758 75.6138 98.4758 75.1917V71.1062C98.4758 70.684 98.8181 70.3418 99.2402 70.3418H191.672C192.094 70.3418 192.436 70.684 192.436 71.1062V75.1917C192.436 75.6138 192.094 75.9561 191.672 75.9561Z" fill="white"/>
<path opacity="0.52" d="M191.438 86.4668H99.0062C98.5841 86.4668 98.2418 86.1246 98.2418 85.7025V81.6169C98.2418 81.1948 98.5841 80.8525 99.0062 80.8525H191.438C191.86 80.8525 192.202 81.1948 192.202 81.6169V85.7025C192.202 86.1247 191.86 86.4668 191.438 86.4668Z" fill="white"/>
<path opacity="0.52" d="M191.438 96.9204H99.0062C98.5841 96.9204 98.2418 96.5782 98.2418 96.1561V92.0705C98.2418 91.6484 98.5841 91.3062 99.0062 91.3062H191.438C191.86 91.3062 192.202 91.6484 192.202 92.0705V96.1561C192.202 96.5782 191.86 96.9204 191.438 96.9204Z" fill="white"/>
<path opacity="0.52" d="M273.217 159.088H182.47C182.048 159.088 181.706 158.746 181.706 158.324V154.238C181.706 153.816 182.048 153.474 182.47 153.474H273.217C273.639 153.474 273.981 153.816 273.981 154.238V158.324C273.981 158.746 273.639 159.088 273.217 159.088Z" fill="white"/>
<path opacity="0.52" d="M272.987 169.599H182.241C181.818 169.599 181.476 169.256 181.476 168.834V164.749C181.476 164.327 181.818 163.984 182.241 163.984H272.987C273.409 163.984 273.751 164.327 273.751 164.749V168.834C273.751 169.256 273.409 169.599 272.987 169.599Z" fill="white"/>
<path opacity="0.52" d="M120.093 133.42C125.098 133.67 125.84 128.89 130.75 128.375C139.042 127.507 141.066 140.81 149.004 140.489C155.453 140.229 157.072 131.256 163.423 132.171C168.128 132.849 169.052 138.066 173.622 138.751C174.532 138.888 175.428 138.817 176.301 138.59V163.806C176.301 166.954 174.509 169.505 172.301 169.5L99.1053 169.329L98.2667 120.764C102.551 121.233 105.671 122.79 107.901 124.373C113.254 128.172 115.027 133.168 120.093 133.42Z" fill="white"/>
<path opacity="0.52" d="M235.154 150.122C255.764 150.122 272.47 133.415 272.47 112.806C272.47 92.1972 255.764 75.4902 235.154 75.4902C214.545 75.4902 197.838 92.1972 197.838 112.806C197.838 133.415 214.545 150.122 235.154 150.122Z" fill="white"/>
<path opacity="0.71" d="M235.154 114.639L228.281 76.1245C210.956 79.3509 197.838 94.5457 197.838 112.807C197.838 113.743 197.874 114.671 197.942 115.59L235.154 114.639Z" fill="white"/>
<path d="M243.394 101.193C243.394 101.193 247.049 102.971 247.721 105.013C248.26 106.651 252.301 106.862 252.7 110.085C252.906 111.749 254.137 113.081 255.794 113.335C259.922 113.968 266.282 116.111 267.3 123.277C268.077 128.747 265.289 130.821 262.362 131.539C260.213 132.066 258.785 134.156 259.219 136.326C259.636 138.407 259.015 140.814 255.409 142.716C247.329 146.98 239.26 132.615 239.26 132.615L237.606 107.535L243.394 101.193Z" fill="url(#paint1_linear_278_2176)"/>
<path d="M199.428 95.2466C199.428 95.2466 215.561 120.764 234.745 125.693C234.745 125.693 231.007 136.34 228.122 137.558C228.122 137.558 204.52 117.865 198.455 98.8726L199.428 95.2466Z" fill="url(#paint2_linear_278_2176)"/>
<path d="M276.606 258.458L277.129 262.756C277.228 263.572 277.87 264.216 278.686 264.31C280.064 264.467 282.275 264.628 284.439 264.4C285.389 264.299 286.005 263.338 285.716 262.428C285.188 260.768 284.224 258.277 282.832 256.812H278.064C277.183 256.812 276.499 257.583 276.606 258.458Z" fill="url(#paint3_linear_278_2176)"/>
<path d="M239.259 208.105L238.455 212.839C238.455 212.839 241.15 240.139 241.629 251.058C241.704 252.77 241.262 254.462 240.363 255.921L235.677 263.532L247.587 256.503L247.824 255.05L245.874 252.369L248.428 221.787C248.578 219.991 248.207 218.189 247.36 216.597L244.897 211.969L239.259 208.105Z" fill="url(#paint4_linear_278_2176)"/>
<path d="M234.892 264.634H238.693C239.405 264.634 240.075 264.308 240.509 263.744C241.694 262.204 244.149 259.2 245.323 259.122C246.903 259.016 246.701 264.634 246.701 264.634H247.587L248.709 257.653C248.991 255.897 248.118 254.157 246.541 253.334C246.541 253.334 246.179 256.005 244.221 257.187C242.262 258.369 236.25 262.6 236.25 262.6C236.25 262.6 235.514 262.495 234.705 262.642C233.506 262.858 233.674 264.634 234.892 264.634Z" fill="url(#paint5_linear_278_2176)"/>
<path d="M255.573 210.354C255.573 210.354 271.362 240.304 273.872 247.142C276.381 253.98 277.261 259.684 277.294 260.224C277.347 261.069 278.397 261.878 281.291 261.878C282.784 261.878 283.516 261.279 283.874 260.7C284.179 260.206 284.195 259.587 283.938 259.066C283.024 257.218 280.126 251.311 279.052 248.632C277.771 245.433 275.014 230.937 273.502 225.897C271.99 220.857 270.281 215.39 263.697 210.354C263.697 210.354 259.177 205.927 255.573 210.354Z" fill="url(#paint6_linear_278_2176)"/>
<path d="M245.599 161.279C241.526 144.021 251.844 134.26 251.844 134.26C245.333 128.011 233.472 125.167 233.472 125.167C233.472 125.167 222.153 133.442 223.496 139.919C224.283 143.715 231.452 162.657 231.452 162.657C231.452 162.657 238.081 165.795 245.599 161.279Z" fill="url(#paint7_linear_278_2176)"/>
<path d="M254.629 169.823C252.971 164.83 245.599 161.279 245.599 161.279C238.081 165.795 231.452 162.657 231.452 162.657C231.452 162.657 229.965 168.34 230.991 173.62C232.017 178.901 238.455 212.839 238.455 212.839C248.598 214.895 264.198 210.772 264.198 210.772C257.737 199.301 256.286 174.817 254.629 169.823Z" fill="url(#paint8_linear_278_2176)"/>
<path d="M240.871 113.762L244.183 128.636C244.5 129.946 243.305 129.732 241.981 129.482C239.812 129.073 237.016 128.231 236.081 126.543C235.986 126.371 235.939 126.177 235.912 125.982L234.489 115.669C234.376 114.85 234.819 114.056 235.574 113.722L238.319 112.504C239.376 112.036 240.599 112.639 240.871 113.762Z" fill="url(#paint9_linear_278_2176)"/>
<path d="M251.843 134.26C251.843 134.26 274.955 150.795 254.799 168.17C254.799 168.17 254.031 169.039 252.519 169.491C251.755 169.719 249.498 171.428 248.353 172.318C247.985 172.605 247.453 172.507 247.206 172.112C247.012 171.802 246.989 171.415 247.145 171.085L250.006 165.035C250.801 164.293 252.017 164.24 252.873 164.911C253.418 165.338 254.218 165.159 254.524 164.537C256.082 161.363 259.024 152.03 246.982 141.484C246.529 141.088 246.415 140.432 246.693 139.898C247.539 138.273 249.474 135.046 251.843 134.26Z" fill="url(#paint10_linear_278_2176)"/>
<path d="M234.529 100.204C234.529 100.204 231.004 102.59 229.489 108.667C227.974 114.744 230.436 116.924 232.959 116.79C235.482 116.657 239.141 115.876 242.311 111.517C245.481 107.157 239.148 97.2878 234.529 100.204Z" fill="url(#paint11_linear_278_2176)"/>
<path d="M239.114 109.066C239.114 109.066 240.406 100.358 233.176 101.69L231.714 103.212C231.714 103.212 228.176 99.2263 232.092 96.2138C236.008 93.2013 241.442 93.9728 244.449 99.457C247.455 104.941 248.547 108.795 246.027 112.203C243.507 115.611 241.611 112.688 241.611 112.688C241.611 112.688 242.767 109.739 241.808 108.473C240.849 107.207 239.612 109.209 239.612 109.209L239.114 109.066Z" fill="url(#paint12_linear_278_2176)"/>
<path d="M240.102 109.811C240.102 109.811 240.74 105.331 243.028 106.612C245.316 107.893 242.203 110.797 240.955 111.785L240.102 109.811Z" fill="url(#paint13_linear_278_2176)"/>
<path d="M199.539 100.5C199.49 101.027 201.448 101.39 202.07 99.1463C201.899 98.172 201.595 93.9057 200.848 93.2429C196.87 89.7128 189.775 85.7417 189.775 85.7417C188.982 86.9531 190.022 87.7509 190.022 87.7509L193.564 90.1408C193.194 91.3644 192.655 92.4461 192.594 93.8431C192.548 94.901 192.939 95.9366 193.641 96.739C194.346 97.5444 195.295 98.5841 196.15 99.3736C197.769 100.868 199.539 100.5 199.539 100.5Z" fill="url(#paint14_linear_278_2176)"/>
<path d="M197.615 98.7611L198.156 98.5384C198.084 98.3632 196.385 94.2335 195.563 93.3745C195.251 93.0486 195.1 92.7694 195.114 92.5445C195.121 92.4227 195.181 92.3025 195.295 92.1799L198.161 93.7124L199.427 95.6941L199.92 95.3786L198.572 93.2678L195.216 91.4731L195.064 91.5965C194.725 91.874 194.549 92.1722 194.529 92.5085C194.505 92.909 194.704 93.3246 195.139 93.7796C195.759 94.4265 197.136 97.5947 197.615 98.7611Z" fill="url(#paint15_linear_278_2176)"/>
<path d="M129.72 254.862C129.72 254.862 129.114 258.292 128.817 261.686C128.701 263.013 129.724 264.165 131.055 264.221C135.576 264.409 145.246 264.775 148.716 264.62C149.237 264.597 149.578 264.063 149.385 263.578C149.223 263.171 148.912 262.843 148.514 262.66L132.541 255.319L129.72 254.862Z" fill="url(#paint16_linear_278_2176)"/>
<path d="M129.224 252.847L129.711 256.949C129.711 256.949 132.509 258.252 134.42 256.785L133.261 252.214L129.224 252.847Z" fill="url(#paint17_linear_278_2176)"/>
<path d="M129.59 175.728C129.379 176.799 128.461 229.184 134.061 252.66C134.152 253.043 133.958 253.438 133.593 253.587C132.734 253.937 131.051 254.446 129.033 254.513C128.408 254.534 127.848 254.128 127.672 253.528C126.071 248.082 118.401 220.792 117.4 194.723C116.283 165.594 117.4 193.732 117.4 193.732L118.056 175.726L129.59 175.728Z" fill="url(#paint18_linear_278_2176)"/>
<path d="M111.346 256.651C111.346 256.651 110.382 258.383 109.448 262.983C109.279 263.814 109.86 264.609 110.704 264.692C112.196 264.839 114.494 265.027 116.335 265.015C117.184 265.009 117.846 264.27 117.744 263.428C117.54 261.748 116.905 258.993 114.942 256.846L111.346 256.651Z" fill="url(#paint19_linear_278_2176)"/>
<path d="M110.499 251.375L111.636 257.579C111.636 257.579 112.76 258.415 114.985 257.809L114.442 251.134L110.499 251.375Z" fill="url(#paint20_linear_278_2176)"/>
<path d="M107.426 177.335C102.847 204.974 108.42 245.647 110.3 253.608C110.415 254.095 110.808 254.468 111.302 254.55C112.141 254.689 113.522 254.803 114.884 254.407C115.353 254.271 115.683 253.848 115.702 253.36C115.954 246.924 115.5 207.413 119.768 191.799C119.984 191.007 120.467 190.317 121.136 189.842L129.418 183.954L130.053 174.436L107.426 177.335Z" fill="url(#paint21_linear_278_2176)"/>
<path d="M136.608 124.965C122.884 124.739 107.74 128.569 107.74 128.569C103.65 152.44 107.025 179.973 107.025 179.973C117.65 182.759 129.636 178.269 129.636 178.269C131.093 170.04 140.998 141.239 140.918 130.635C140.901 128.382 137.35 124.978 136.608 124.965Z" fill="url(#paint22_linear_278_2176)"/>
<path d="M113.005 141.858L107.741 128.569C107.741 128.569 94.9211 137.279 92.8129 148.323C95.2351 148.501 99.6428 149.131 103.957 151.31C104.905 146.095 113.005 141.858 113.005 141.858Z" fill="url(#paint23_linear_278_2176)"/>
<path d="M124.208 154.363C124.208 154.363 109.815 162.497 104.958 155.552C103.95 154.109 103.709 152.676 103.957 151.31C99.6428 149.131 95.2351 148.501 92.8129 148.323C92.1772 151.652 92.5132 155.193 94.4696 158.772C102.976 174.333 126.112 157.912 126.112 157.912L124.208 154.363Z" fill="url(#paint24_linear_278_2176)"/>
<path d="M122.478 164.654L129.873 138.828C130.242 137.54 131.352 136.603 132.684 136.456C134.676 136.236 137.826 135.906 141.318 135.611C146.307 135.189 151.996 134.836 156.012 134.972C157.376 135.018 158.231 136.468 157.621 137.69C154.758 143.435 147.568 157.605 143.132 164.111C142.388 165.202 141.145 165.844 139.824 165.831L123.242 165.677C122.712 165.672 122.332 165.164 122.478 164.654Z" fill="url(#paint25_linear_278_2176)"/>
<path d="M124.376 158.026C124.376 158.026 123.281 153.527 123.723 151.93C124.164 150.334 125.02 148.281 127.87 148.737C130.721 149.194 134.083 150.394 134.083 150.394C134.083 150.394 133.913 152.474 131.747 151.803L133.09 152.842C133.09 152.842 132.898 154.507 131.068 153.618L132.318 154.996C132.318 154.996 131.532 156.364 130.186 155.487C128.839 154.61 128.194 158.568 124.376 158.026Z" fill="url(#paint26_linear_278_2176)"/>
<path d="M122.707 113.823L118.34 126.452C118.267 126.661 118.353 126.893 118.547 127C119.737 127.658 124.026 129.56 129.194 126.283C129.733 125.942 130.099 125.385 130.181 124.753L131.595 113.823L122.707 113.823Z" fill="url(#paint27_linear_278_2176)"/>
<path d="M132.208 102.128C132.208 102.128 137.004 111.155 136.389 114.801C135.774 118.448 129.831 118.186 124.642 115.225L121.015 105.478L132.208 102.128Z" fill="url(#paint28_linear_278_2176)"/>
<path d="M124.871 110.438C125.082 110.345 125.16 110.086 125.034 109.893C124.649 109.307 123.929 108.109 123.699 107.061C123.699 107.061 122.837 106.509 125.893 105.777C128.95 105.046 133.507 103.91 134.465 101.309C135.399 98.7726 130.39 95.4804 126.475 100.562C126.326 100.756 128.589 97.674 128.441 97.4805C127.799 96.6451 126.111 94.9112 123.769 95.9624C121.576 96.9461 121.329 98.5525 121.36 99.3623C121.368 99.6004 121.155 99.7856 120.921 99.7409C119.813 99.5296 117.153 99.348 115.912 102.077C114.889 104.324 115.554 105.596 116.159 106.219C116.355 106.42 116.269 106.752 116 106.834C115.272 107.057 115.517 106.702 115.611 108.408C115.741 110.768 117.193 111.533 117.944 111.426C118.067 111.408 118.191 111.45 118.275 111.542C118.919 112.255 121.82 115.281 124.961 115.646C125.232 115.677 125.443 115.409 125.354 115.15L123.995 111.2C123.932 111.016 124.02 110.815 124.197 110.736L124.871 110.438Z" fill="url(#paint29_linear_278_2176)"/>
<path d="M125.417 110.998C125.417 110.998 122.003 108.656 121.754 110.629C121.504 112.601 124.828 113.486 126.475 112.751L125.417 110.998Z" fill="url(#paint30_linear_278_2176)"/>
</g>
<defs>
<linearGradient id="paint0_linear_278_2176" x1="-4.02129e-05" y1="157" x2="316" y2="157" gradientUnits="userSpaceOnUse">
<stop stop-color="#DAE3FE"/>
<stop offset="1" stop-color="#E9EFFD"/>
</linearGradient>
<linearGradient id="paint1_linear_278_2176" x1="236.966" y1="86.5648" x2="247.807" y2="113.759" gradientUnits="userSpaceOnUse">
<stop stop-color="#09005D"/>
<stop offset="1" stop-color="#1A0F91"/>
</linearGradient>
<linearGradient id="paint2_linear_278_2176" x1="211.475" y1="107.289" x2="240.65" y2="147.618" gradientUnits="userSpaceOnUse">
<stop stop-color="#FF928E"/>
<stop offset="1" stop-color="#FEB3B1"/>
</linearGradient>
<linearGradient id="paint3_linear_278_2176" x1="276.595" y1="260.663" x2="285.788" y2="260.663" gradientUnits="userSpaceOnUse">
<stop stop-color="#4042E2"/>
<stop offset="1" stop-color="#4F52FF"/>
</linearGradient>
<linearGradient id="paint4_linear_278_2176" x1="237.752" y1="296.913" x2="250.98" y2="142.302" gradientUnits="userSpaceOnUse">
<stop stop-color="#FF928E"/>
<stop offset="1" stop-color="#FEB3B1"/>
</linearGradient>
<linearGradient id="paint5_linear_278_2176" x1="233.887" y1="258.984" x2="248.762" y2="258.984" gradientUnits="userSpaceOnUse">
<stop stop-color="#4042E2"/>
<stop offset="1" stop-color="#4F52FF"/>
</linearGradient>
<linearGradient id="paint6_linear_278_2176" x1="264.362" y1="299.213" x2="277.594" y2="144.562" gradientUnits="userSpaceOnUse">
<stop stop-color="#FF928E"/>
<stop offset="1" stop-color="#FEB3B1"/>
</linearGradient>
<linearGradient id="paint7_linear_278_2176" x1="238.079" y1="140.997" x2="244.693" y2="202.367" gradientUnits="userSpaceOnUse">
<stop stop-color="#4042E2"/>
<stop offset="1" stop-color="#4F52FF"/>
</linearGradient>
<linearGradient id="paint8_linear_278_2176" x1="251.635" y1="178.995" x2="288.629" y2="104.042" gradientUnits="userSpaceOnUse">
<stop stop-color="#4042E2"/>
<stop offset="1" stop-color="#4F52FF"/>
</linearGradient>
<linearGradient id="paint9_linear_278_2176" x1="236.301" y1="144.512" x2="238.786" y2="126.333" gradientUnits="userSpaceOnUse">
<stop stop-color="#FF928E"/>
<stop offset="1" stop-color="#FEB3B1"/>
</linearGradient>
<linearGradient id="paint10_linear_278_2176" x1="246.543" y1="153.372" x2="263.05" y2="153.372" gradientUnits="userSpaceOnUse">
<stop stop-color="#FF928E"/>
<stop offset="1" stop-color="#FEB3B1"/>
</linearGradient>
<linearGradient id="paint11_linear_278_2176" x1="231.876" y1="122.619" x2="245.647" y2="80.5557" gradientUnits="userSpaceOnUse">
<stop stop-color="#FF928E"/>
<stop offset="1" stop-color="#FEB3B1"/>
</linearGradient>
<linearGradient id="paint12_linear_278_2176" x1="229.921" y1="88.7513" x2="245.839" y2="113.32" gradientUnits="userSpaceOnUse">
<stop stop-color="#09005D"/>
<stop offset="1" stop-color="#1A0F91"/>
</linearGradient>
<linearGradient id="paint13_linear_278_2176" x1="236.907" y1="124.267" x2="250.678" y2="82.2033" gradientUnits="userSpaceOnUse">
<stop stop-color="#FF928E"/>
<stop offset="1" stop-color="#FEB3B1"/>
</linearGradient>
<linearGradient id="paint14_linear_278_2176" x1="207.972" y1="109.824" x2="237.148" y2="150.152" gradientUnits="userSpaceOnUse">
<stop stop-color="#FF928E"/>
<stop offset="1" stop-color="#FEB3B1"/>
</linearGradient>
<linearGradient id="paint15_linear_278_2176" x1="199.92" y1="95.1172" x2="194.527" y2="95.1172" gradientUnits="userSpaceOnUse">
<stop stop-color="#FF928E"/>
<stop offset="1" stop-color="#FEB3B1"/>
</linearGradient>
<linearGradient id="paint16_linear_278_2176" x1="138.761" y1="272.123" x2="139.384" y2="256.236" gradientUnits="userSpaceOnUse">
<stop stop-color="#4042E2"/>
<stop offset="1" stop-color="#4F52FF"/>
</linearGradient>
<linearGradient id="paint17_linear_278_2176" x1="129.224" y1="254.848" x2="134.42" y2="254.848" gradientUnits="userSpaceOnUse">
<stop stop-color="#FF928E"/>
<stop offset="1" stop-color="#FEB3B1"/>
</linearGradient>
<linearGradient id="paint18_linear_278_2176" x1="139.68" y1="167.375" x2="115.072" y2="252.297" gradientUnits="userSpaceOnUse">
<stop stop-color="#09005D"/>
<stop offset="1" stop-color="#1A0F91"/>
</linearGradient>
<linearGradient id="paint19_linear_278_2176" x1="113.285" y1="271.124" x2="113.908" y2="255.237" gradientUnits="userSpaceOnUse">
<stop stop-color="#4042E2"/>
<stop offset="1" stop-color="#4F52FF"/>
</linearGradient>
<linearGradient id="paint20_linear_278_2176" x1="110.499" y1="254.582" x2="114.985" y2="254.582" gradientUnits="userSpaceOnUse">
<stop stop-color="#FF928E"/>
<stop offset="1" stop-color="#FEB3B1"/>
</linearGradient>
<linearGradient id="paint21_linear_278_2176" x1="126.582" y1="163.58" x2="101.975" y2="248.501" gradientUnits="userSpaceOnUse">
<stop stop-color="#09005D"/>
<stop offset="1" stop-color="#1A0F91"/>
</linearGradient>
<linearGradient id="paint22_linear_278_2176" x1="107.689" y1="165.258" x2="156.623" y2="112.588" gradientUnits="userSpaceOnUse">
<stop stop-color="#4042E2"/>
<stop offset="1" stop-color="#4F52FF"/>
</linearGradient>
<linearGradient id="paint23_linear_278_2176" x1="93.7816" y1="152.338" x2="142.716" y2="99.6673" gradientUnits="userSpaceOnUse">
<stop stop-color="#4042E2"/>
<stop offset="1" stop-color="#4F52FF"/>
</linearGradient>
<linearGradient id="paint24_linear_278_2176" x1="119.754" y1="133.127" x2="100.33" y2="170.856" gradientUnits="userSpaceOnUse">
<stop stop-color="#FF928E"/>
<stop offset="1" stop-color="#FEB3B1"/>
</linearGradient>
<linearGradient id="paint25_linear_278_2176" x1="155.434" y1="133.904" x2="119.847" y2="166.434" gradientUnits="userSpaceOnUse">
<stop stop-color="#09005D"/>
<stop offset="1" stop-color="#1A0F91"/>
</linearGradient>
<linearGradient id="paint26_linear_278_2176" x1="123.618" y1="153.375" x2="134.083" y2="153.375" gradientUnits="userSpaceOnUse">
<stop stop-color="#FF928E"/>
<stop offset="1" stop-color="#FEB3B1"/>
</linearGradient>
<linearGradient id="paint27_linear_278_2176" x1="118.314" y1="120.986" x2="131.595" y2="120.986" gradientUnits="userSpaceOnUse">
<stop stop-color="#FF928E"/>
<stop offset="1" stop-color="#FEB3B1"/>
</linearGradient>
<linearGradient id="paint28_linear_278_2176" x1="134.754" y1="112.537" x2="120.151" y2="103.63" gradientUnits="userSpaceOnUse">
<stop stop-color="#FF928E"/>
<stop offset="1" stop-color="#FEB3B1"/>
</linearGradient>
<linearGradient id="paint29_linear_278_2176" x1="112.134" y1="94.6062" x2="130.999" y2="109.506" gradientUnits="userSpaceOnUse">
<stop stop-color="#09005D"/>
<stop offset="1" stop-color="#1A0F91"/>
</linearGradient>
<linearGradient id="paint30_linear_278_2176" x1="130.919" y1="115.858" x2="117.78" y2="107.845" gradientUnits="userSpaceOnUse">
<stop stop-color="#FF928E"/>
<stop offset="1" stop-color="#FEB3B1"/>
</linearGradient>
</defs>
</svg>
