<svg width="263" height="263" viewBox="0 0 263 263" fill="none" xmlns="http://www.w3.org/2000/svg">
<path d="M62.3387 15.8054C53.6292 28.5015 63.8414 49.0849 50.918 58.6334C38.338 67.9282 22.884 52.6928 11.0282 60.6937C-6.55919 72.5625 -3.34735 126.872 22.3663 160.616C30.0993 170.764 36.5606 174.712 39.4224 186.189C45.5673 210.832 23.971 225.491 28.0808 237.68C37.3344 265.123 179.649 288.152 236.752 205.675C263.422 167.155 267.412 111.531 243.584 69.2852C200.526 -7.05295 81.8813 -12.6822 62.3387 15.8054Z" fill="#F4F7FA"/>
<path d="M150.781 15.066L23.3374 10.7526C20.4237 10.654 18.0568 12.9114 18.0568 15.795V247.299C18.0568 250.183 20.4236 252.386 23.3374 252.22L150.781 244.973C153.417 244.823 155.549 242.485 155.549 239.75V20.1795C155.55 17.4445 153.417 15.1552 150.781 15.066Z" fill="url(#paint0_linear_147_772)"/>
<g opacity="0.3">
<path d="M98.4911 186.014C96.3237 159.544 112.584 148.618 106.383 124.635C98.7187 94.9905 69.2396 93.7199 59.2002 64.6498C55.3536 53.5116 53.8339 36.6728 64.8451 12.1574L23.3377 10.7526C20.424 10.654 18.0572 12.9114 18.0572 15.795V247.299C18.0572 250.183 20.424 252.386 23.3377 252.22L136.974 245.758C108.063 223.372 99.8232 202.284 98.4911 186.014Z" fill="#D8DEE8"/>
</g>
<path opacity="0.3" d="M150.781 17.9893L23.3376 13.8228C22.1432 13.7838 21.1707 14.7131 21.1707 15.8944V247.128C21.1707 248.31 22.1432 249.217 23.3376 249.15L150.781 242.05C151.863 241.99 152.742 241.027 152.742 239.904V20.0901C152.742 18.967 151.863 18.0246 150.781 17.9893Z" fill="url(#paint1_linear_147_772)"/>
<path opacity="0.6" d="M126.712 193.042L49.3816 195.828C47.5561 195.894 46.0743 197.426 46.0743 199.25C46.0743 201.074 47.5561 202.495 49.3816 202.425L126.712 199.445C128.429 199.379 129.82 197.893 129.82 196.127C129.82 194.361 128.429 192.98 126.712 193.042Z" fill="url(#paint2_linear_147_772)"/>
<path opacity="0.6" d="M126.712 204.447L49.3816 207.578C47.5561 207.652 46.0743 209.191 46.0743 211.015C46.0743 212.838 47.5561 214.253 49.3816 214.175L126.712 210.85C128.429 210.776 129.82 209.285 129.82 207.519C129.82 205.753 128.429 204.378 126.712 204.447Z" fill="url(#paint3_linear_147_772)"/>
<path opacity="0.6" d="M126.712 215.852L49.3816 219.328C47.5561 219.41 46.0743 220.955 46.0743 222.779C46.0743 224.603 47.5561 226.011 49.3816 225.925L126.712 222.255C128.429 222.174 129.82 220.676 129.82 218.91C129.82 217.144 128.429 215.775 126.712 215.852Z" fill="url(#paint4_linear_147_772)"/>
<path opacity="0.6" d="M86.6113 27.2467L47.7123 26.145C46.8079 26.1194 46.0743 26.8305 46.0743 27.7332C46.0743 28.6359 46.8079 29.3876 47.7123 29.4121L86.6113 30.4656C87.4886 30.4894 88.1994 29.7885 88.1994 28.9003C88.1994 28.0118 87.4886 27.2717 86.6113 27.2467Z" fill="url(#paint5_linear_147_772)"/>
<path opacity="0.6" d="M86.6113 32.9803L47.7123 31.9643C46.8079 31.9407 46.0743 32.6533 46.0743 33.5561C46.0743 34.4588 46.8079 35.2089 47.7123 35.2313L86.6113 36.1991C87.4886 36.2209 88.1994 35.5184 88.1994 34.6301C88.1994 33.7419 87.4886 33.0032 86.6113 32.9803Z" fill="url(#paint6_linear_147_772)"/>
<path opacity="0.6" d="M86.6113 38.7138L47.7123 37.7837C46.8079 37.762 46.0743 38.4763 46.0743 39.379C46.0743 40.2817 46.8079 41.0302 47.7123 41.0507L86.6113 41.9326C87.4886 41.9525 88.1994 41.2484 88.1994 40.3602C88.1994 39.4719 87.4886 38.7348 86.6113 38.7138Z" fill="url(#paint7_linear_147_772)"/>
<path opacity="0.35" d="M98.7843 186.005C96.6174 159.537 112.874 148.612 106.675 124.632C99.012 94.9911 69.5396 93.7207 59.5025 64.6539C55.8156 53.9764 54.2666 38.0585 63.8531 15.1472L23.6482 13.8328C22.4542 13.7938 21.4819 14.7229 21.4819 15.9042V247.111C21.4819 248.292 22.4542 249.199 23.6482 249.133L133.808 242.995C107.686 221.625 100.061 201.599 98.7843 186.005Z" fill="white"/>
<path d="M123.625 246.894C115.428 246.755 107.977 227.761 107.33 212.234C107.08 206.228 106.831 200.253 110.301 194.239C116.157 184.089 125.148 186.753 130.4 178.484C138.156 166.275 123.95 151.969 131.664 141.825C137.338 134.364 146.822 139.741 153.702 131.542C161.684 122.032 153.894 108.868 161.284 104.071C165.577 101.285 169.336 104.993 181.691 102.183C186.524 101.083 188.941 100.533 190.968 98.8409C198.076 92.9064 192.637 82.8041 197.896 75.2868C203.685 67.0117 218.963 66.8334 228.47 69.4422C245.504 74.1166 255.433 90.874 257.871 105.045C258.393 108.081 261.479 127.901 248.888 140.594C239.732 149.823 225.802 151.74 223.543 152.05C214.741 153.261 212.589 150.985 209.756 153.309C201.57 160.028 217.622 180.637 208.331 196.799C204.537 203.397 197.09 208.262 190.038 209.685C178.636 211.984 172.409 204.449 166.748 208.24C159.423 213.143 166.595 227.929 158.647 233.84C153.024 238.022 147.308 232.201 137.405 236.524C128.615 240.362 128.479 246.976 123.625 246.894Z" fill="url(#paint8_linear_147_772)"/>
<path opacity="0.5" d="M121.851 232.426C125.633 232.766 126.044 222.573 136.472 207.663C147.858 191.381 155.428 192.01 166.096 177.296C178.275 160.499 170.818 156.356 181.167 143.209C195.192 125.389 210.342 131.152 227.285 110.208C232.367 103.926 239.1 95.3552 236.425 86.528C234.106 78.8741 225.018 72.0302 216.121 73.3872C215.749 73.444 208.285 74.7026 204.399 81.1892C199.632 89.1463 205.801 95.7031 201.197 101.891C198.786 105.132 194.401 106.141 185.631 108.161C173.018 111.065 170.476 108.695 167.345 111.565C160.273 118.05 170.591 132.59 163.591 140.362C157.581 147.034 146.404 140.282 141.21 146.589C134.942 154.201 148.555 167.274 142.737 179.273C137.728 189.603 124.79 185.782 117.605 196.877C109.12 209.978 116.393 231.935 121.851 232.426Z" fill="#F4F7FA"/>
<path d="M176.92 230.617C182.77 230.475 182.552 219.721 192.4 215.567C203.293 210.972 211.41 220.818 218.852 216.063C227.214 210.719 220.818 195.827 230.144 189.132C236.515 184.559 241.755 189.891 249.894 185.479C258.377 180.879 265.862 167.94 261.348 156.368C257.582 146.713 246.781 141.385 238.56 142.099C231.834 142.684 230.316 147.009 224.322 146.341C216.856 145.509 216.368 138.479 208.397 136.043C200.466 133.619 190.284 137.322 185.127 144.099C180.839 149.734 180.963 156.265 181.07 161.96C181.359 177.252 188.841 182.448 185.689 188.631C181.757 196.346 168.524 191.367 163.438 199.129C157.072 208.842 168.505 230.821 176.92 230.617Z" fill="url(#paint9_linear_147_772)"/>
<path opacity="0.5" d="M173.047 219.712C175.214 219.936 175.189 212.958 181.329 206.551C188.369 199.205 194.458 202.058 202.54 196.02C212.554 188.538 207.748 180.763 216.588 173.297C228.98 162.83 246.404 171.367 250.146 163.422C252.333 158.781 248.657 151.042 243.719 148.869C238.449 146.55 235.401 152.18 226.688 151.735C218.528 151.319 217.589 146.197 207.411 144.538C202.449 143.73 195.931 142.667 192.16 146.166C184.772 153.02 191.147 174.399 193.093 180.925C194.884 186.929 196.233 189.199 194.875 191.84C191.318 198.759 176.847 193.328 171.11 200.978C166.311 207.377 170.249 219.424 173.047 219.712Z" fill="#F4F7FA"/>
<path d="M173.941 10.1036L41.0653 5.60624C38.0274 5.50339 35.5598 7.85706 35.5598 10.8636V252.235C35.5598 255.242 38.0275 257.539 41.0653 257.366L173.941 249.81C176.689 249.654 178.913 247.216 178.913 244.364V15.435C178.913 12.5834 176.689 10.1966 173.941 10.1036Z" fill="url(#paint10_linear_147_772)"/>
<g opacity="0.3">
<path d="M119.422 188.338C117.162 160.74 134.116 149.348 127.651 124.343C119.659 93.4349 88.9237 92.1101 78.4565 61.8009C74.4459 50.1879 72.8614 32.6315 84.3419 7.07108L41.0653 5.60638C38.0273 5.50354 35.5597 7.8572 35.5597 10.8637V252.236C35.5597 255.242 38.0274 257.539 41.0653 257.366L159.546 250.629C129.401 227.288 120.811 205.302 119.422 188.338Z" fill="#D8DEE8"/>
</g>
<path d="M173.941 13.1513L41.0652 8.80725C39.8199 8.76652 38.806 9.7354 38.806 10.9671V252.057C38.806 253.289 39.82 254.234 41.0652 254.165L173.941 246.763C175.069 246.7 175.986 245.696 175.986 244.525V15.3416C175.986 14.1708 175.069 13.1883 173.941 13.1513Z" fill="url(#paint11_linear_147_772)"/>
<path d="M148.846 195.665L68.2194 198.57C66.3161 198.639 64.7711 200.236 64.7711 202.138C64.7711 204.039 66.3161 205.521 68.2194 205.448L148.846 202.341C150.637 202.272 152.087 200.724 152.087 198.882C152.087 197.041 150.637 195.601 148.846 195.665Z" fill="#D8DEE8"/>
<path d="M148.846 207.557L68.2194 210.821C66.3162 210.898 64.7712 212.502 64.7712 214.404C64.7712 216.306 66.3162 217.781 68.2194 217.699L148.846 214.233C150.637 214.156 152.087 212.601 152.087 210.759C152.087 208.918 150.637 207.484 148.846 207.557Z" fill="#D8DEE8"/>
<path d="M148.846 219.448L68.2194 223.072C66.3162 223.158 64.7712 224.769 64.7712 226.67C64.7712 228.572 66.3162 230.04 68.2194 229.95L148.846 226.124C150.637 226.039 152.087 224.478 152.087 222.636C152.087 220.795 150.637 219.368 148.846 219.448Z" fill="#D8DEE8"/>
<path d="M107.036 22.8034L66.4789 21.6548C65.5359 21.6281 64.7711 22.3694 64.7711 23.3106C64.7711 24.2518 65.536 25.0356 66.4789 25.0611L107.036 26.1596C107.951 26.1843 108.692 25.4536 108.692 24.5275C108.692 23.6011 107.951 22.8294 107.036 22.8034Z" fill="#D8DEE8"/>
<path d="M107.036 28.7814L66.479 27.7222C65.536 27.6975 64.7712 28.4406 64.7712 29.3818C64.7712 30.323 65.5361 31.105 66.479 31.1285L107.036 32.1375C107.951 32.1602 108.692 31.4278 108.692 30.5017C108.692 29.5755 107.951 28.8054 107.036 28.7814Z" fill="#D8DEE8"/>
<path d="M107.036 34.7593L66.479 33.7895C65.536 33.7669 64.7712 34.5116 64.7712 35.4529C64.7712 36.394 65.5361 37.1744 66.479 37.1958L107.036 38.1152C107.951 38.136 108.692 37.402 108.692 36.4758C108.692 35.5497 107.951 34.7811 107.036 34.7593Z" fill="#D8DEE8"/>
<path d="M91.4086 98.9683C94.0416 93.9871 98.9697 90.4483 104.744 89.7886L105.147 65.1733C88.689 65.6034 74.5119 75.7512 68.1604 90.2969L91.4086 98.9683Z" fill="url(#paint12_linear_147_772)"/>
<path d="M123.69 110.162C122.284 118.341 115.264 124.617 106.767 124.696C104.255 124.719 101.864 124.198 99.7021 123.242L86.8033 144.445C92.7661 147.611 99.5705 149.342 106.767 149.21C128.165 148.818 145.498 132.073 147.451 111.06L123.69 110.162Z" fill="url(#paint13_linear_147_772)"/>
<path d="M82.8195 142.031L95.7552 120.809C91.8579 117.61 89.3659 112.724 89.3659 107.235C89.3659 105.909 89.5125 104.617 89.7884 103.374L66.5125 94.7353C65.2867 98.7069 64.6258 102.929 64.6258 107.305C64.6258 121.796 71.8495 134.507 82.8195 142.031Z" fill="url(#paint14_linear_147_772)"/>
<path d="M109.353 89.8809C117.118 91.0906 123.153 97.5364 123.873 105.526L163.199 107.08C163.199 107.062 163.199 107.044 163.199 107.027C163.199 76.5483 139.929 51.2231 110.022 48.9736L109.353 89.8809Z" fill="url(#paint15_linear_147_772)"/>
<path opacity="0.35" d="M119.728 188.328C117.468 160.732 134.418 149.342 127.954 124.34C119.965 93.4354 89.2363 92.1108 78.7714 61.8051C74.9272 50.6725 73.3122 34.076 83.3074 10.1882L41.3888 8.81781C40.1438 8.77709 39.1301 9.74588 39.1301 10.9775V252.039C39.1301 253.271 40.1438 254.217 41.3888 254.147L156.244 247.748C129.008 225.467 121.059 204.588 119.728 188.328Z" fill="white"/>
<path d="M75.2896 75.4597L10.9822 74.8197C9.52795 74.8053 8.3476 73.6467 8.3476 72.2323V47.7729C8.3476 46.3584 9.52795 45.2398 10.9822 45.2745L66.9655 46.608C68.3424 46.6408 69.4573 47.7812 69.4573 49.1552V70.1774L75.2896 75.4597Z" fill="url(#paint16_linear_147_772)"/>
<path opacity="0.67" d="M60.4246 55.4472L17.8376 54.6169V51.6846L60.4246 52.5738V55.4472Z" fill="white"/>
<path opacity="0.67" d="M60.4246 61.1943L17.8376 60.4815V57.5493L60.4246 58.3208V61.1943Z" fill="white"/>
<path opacity="0.67" d="M60.4246 66.9412L17.8376 66.346V63.4137L60.4246 64.0676V66.9412Z" fill="white"/>
<path opacity="0.3" d="M109.245 146.295L186.572 144.633C188.585 144.59 190.215 146.243 190.215 148.325V184.328C190.215 186.41 188.585 188.153 186.572 188.221L105.071 190.968C102.962 191.039 101.251 189.366 101.251 187.232V140.17L109.245 146.295Z" fill="url(#paint17_linear_147_772)"/>
<path opacity="0.67" d="M115.015 176.774L177.015 174.921V179.272L115.015 181.201V176.774Z" fill="white"/>
<path opacity="0.67" d="M115.015 167.921L177.015 166.218V170.569L115.015 172.348V167.921Z" fill="white"/>
<path opacity="0.67" d="M115.015 159.067L177.015 157.515V161.866L115.015 163.494V159.067Z" fill="white"/>
<path d="M179.805 250.237C179.805 250.237 171.359 254.1 171.222 254.714C171.085 255.328 176.659 254.495 178.936 254.578C181.212 254.661 183.083 253.984 182.874 253.02C182.666 252.057 181.863 249.634 181.863 249.634L179.805 250.237Z" fill="url(#paint18_linear_147_772)"/>
<path d="M179.488 247.119L180.011 250.925C180.011 250.925 181.351 251.398 182.249 250.833L182.622 246.656L179.488 247.119Z" fill="url(#paint19_linear_147_772)"/>
<path d="M219.306 247.115L220.293 248.691C220.569 249.132 220.653 249.664 220.522 250.167C220.181 251.481 219.5 254.041 219.202 254.709C218.797 255.619 213.326 256.172 213.326 256.172C213.326 256.172 212.837 255.486 213.971 254.654C215.105 253.822 215.835 253.69 216.233 252.465C216.631 251.241 216.89 247.778 216.89 247.778L219.306 247.115Z" fill="url(#paint20_linear_147_772)"/>
<path d="M215.203 243.113C215.563 243.398 217.333 248.728 217.333 248.728C217.333 248.728 217.904 249.454 218.982 248.378C220.06 247.302 219.47 247.895 219.47 247.895L219.254 242.649L215.203 243.113Z" fill="url(#paint21_linear_147_772)"/>
<path d="M174.652 170.649C174.233 182.006 174.245 194.344 174.93 207.522C175.701 222.362 177.212 236.076 179.105 248.506C179.798 248.527 180.526 248.529 181.286 248.505C181.799 248.49 182.297 248.464 182.777 248.429C183.738 245.849 184.873 242.455 185.886 238.403C186.952 234.141 187.592 230.32 188.045 226.666C189.643 213.8 187.732 212.682 189.03 203.147C190.18 194.703 191.844 194.369 193.769 182.379C195.857 169.369 194.275 167.422 193.505 166.719C190.231 163.726 182.563 165.787 174.652 170.649Z" fill="url(#paint22_linear_147_772)"/>
<path opacity="0.3" d="M193.506 166.719C190.383 163.865 183.261 165.614 175.746 170C184.426 179.334 185.385 185.4 184.356 189.339C183.194 193.792 179.631 195.082 179.656 199.948C179.687 205.928 185.088 207.499 184.988 213.827C184.922 218.011 182.551 217.973 182.003 223.143C181.355 229.259 184.458 231.359 183.466 235.885C183.039 237.832 181.813 240.379 178.31 243.007C178.567 244.864 178.831 246.703 179.106 248.506C179.798 248.527 180.526 248.529 181.286 248.505C181.799 248.49 182.297 248.464 182.777 248.429C183.738 245.849 184.873 242.455 185.886 238.403C186.952 234.141 187.592 230.32 188.046 226.666C189.643 213.8 187.732 212.683 189.031 203.148C190.181 194.703 191.844 194.369 193.769 182.379C195.857 169.369 194.275 167.422 193.506 166.719Z" fill="url(#paint23_linear_147_772)"/>
<path d="M180.014 170.446C187.495 181.336 195.569 194.892 202.799 211.124C208.263 223.391 212.232 234.911 215.15 245.18C215.542 245.36 216.467 245.719 217.646 245.56C219.256 245.344 220.218 244.314 220.47 244.026C221.63 236.658 221.485 230.419 221.075 225.918C220.812 223.036 220.347 218.236 218.495 212.314C216.421 205.681 215.006 205.311 212.304 198.295C209.499 191.012 210.17 189.191 207.479 180.074C206.374 176.329 204.525 170.757 201.481 164.093C194.325 166.211 187.17 168.328 180.014 170.446Z" fill="url(#paint24_linear_147_772)"/>
<path d="M149.625 155.08C149.696 157.73 154.051 160.064 157.558 160.78C165.757 162.453 175.263 156.496 179.775 149.905C180.661 148.611 181.645 147.042 181.883 147.164C182.419 147.438 177.49 155.537 175.353 164.748C174.259 169.461 174.546 171.668 172.501 174.805C172.038 175.515 171.468 176.255 171.668 177.096C172.17 179.202 176.986 179.749 180.326 180.128C183.853 180.528 187.141 180.49 190.392 180.442C195.597 180.366 196.007 180.096 197.195 180.679C200.815 182.455 200.569 186.712 203.294 187.28C205.581 187.757 207.902 185.202 208.638 184.392C212.462 180.182 212.258 175.106 212.936 169.986C214.513 158.083 220.98 145.043 227.306 136.787C229.224 134.284 230.558 132.966 230.642 130.64C230.886 123.809 220.065 116.269 211.056 115.403C208.586 115.165 204.164 115.24 200.019 115.631C198.362 115.787 196.598 116.017 194.702 116.348C190.104 117.153 186.903 117.713 183.641 119.205C170.487 125.224 173.357 138.621 159.12 147.884C154.224 151.069 149.55 152.305 149.625 155.08Z" fill="white"/>
<path d="M203.521 108.317C203.521 108.317 204.086 111.47 205.387 113.714C206.562 115.743 211.422 116.47 212.434 116.823C213.446 117.176 210.907 118.939 208.206 119.578C205.505 120.218 197.605 120.635 196.057 119.785C194.51 118.935 197.062 118.675 198.92 117.698C200.779 116.721 201.401 112.749 200.825 111.061C200.25 109.372 203.521 108.317 203.521 108.317Z" fill="url(#paint25_linear_147_772)"/>
<path d="M198.387 107.404C196.427 106.004 195.884 102.216 196.973 101.365C197.284 101.122 197.581 101.234 202.004 103.008C204.201 103.889 205.281 104.359 205.637 105.329C205.854 105.921 205.819 106.721 205.579 107.351C205.455 107.675 205.215 108.079 204.679 108.85C204.204 109.534 204.236 109.511 204.091 109.709C203.741 110.187 203.066 110.991 201.829 111.923C201.76 111.574 201.651 111.141 201.469 110.67C201.399 110.488 201.116 109.778 200.669 109.181C199.898 108.152 199.023 107.859 198.387 107.404Z" fill="url(#paint26_linear_147_772)"/>
<path d="M203.409 111.007C203.409 111.007 202.127 112.917 199.752 112.658C197.625 112.426 197.522 107.629 198.929 106.674C199.398 106.355 200.314 106.255 201.045 106.494C201.477 106.636 201.617 106.824 202.327 107.042C202.982 107.242 203.172 107.177 203.365 107.354C203.606 107.576 203.766 108.1 203.288 109.48C203.713 109.086 204.208 108.949 204.547 109.127C204.601 109.156 204.743 109.262 204.819 109.416C205.093 109.976 204.564 110.652 203.409 111.007Z" fill="url(#paint27_linear_147_772)"/>
<path opacity="0.3" d="M161.126 154.673C167.071 153.334 169.44 153.377 172.379 151.009C177.274 147.065 178.009 141.063 180.854 141.136C182.198 141.171 183.29 142.543 184.067 143.887C183.351 145.009 182.635 146.13 181.919 147.252C181.916 147.209 181.906 147.176 181.882 147.164C181.645 147.042 180.661 148.611 179.775 149.905C175.263 156.496 165.757 162.453 157.557 160.78C155.206 160.3 152.48 159.091 150.913 157.549C154.96 156.182 158.416 155.283 161.126 154.673Z" fill="url(#paint28_linear_147_772)"/>
<path d="M151.444 159.784C151.444 159.784 148.09 159.451 146.091 158.596C144.092 157.74 142.801 158.968 142.984 159.819C143.168 160.669 146.457 161.852 147.77 161.894C149.084 161.937 151.444 159.784 151.444 159.784Z" fill="url(#paint29_linear_147_772)"/>
<path d="M223.69 177.528C227.292 177.849 235.399 177.996 241.133 172.691C250.679 163.86 245.943 147.051 242.62 139.822C238.811 131.533 232.747 126.894 229.063 124.074C224.491 120.576 221.701 118.441 218.344 118.919C209.662 120.156 203.649 137.95 208.415 143.044C209.975 144.712 211.521 143.768 216.036 145.206C217.507 145.674 228.482 149.17 230.393 157.253C231.73 162.911 228.325 169.536 222.265 173.985C222.74 175.166 223.215 176.347 223.69 177.528Z" fill="white"/>
<path opacity="0.3" d="M183.321 174.597C187.399 172.02 188.002 169.409 192.568 167.644C198.499 165.351 201.349 168.264 204.29 165.912C207.79 163.114 204.692 158.24 207.311 149.781C207.755 148.345 211.132 137.439 218.879 136.05C222.491 135.402 227.262 136.786 229.101 139.847C230.54 142.243 229.199 144.029 230.949 146.674C232.697 149.317 234.788 148.67 237.016 150.875C240.555 154.375 241.097 161.757 237.903 165.931C236.413 167.878 234.476 168.648 230.833 170.097C228.607 170.982 226.538 171.532 224.756 171.882C229.218 167.6 231.533 162.077 230.393 157.253C229.202 152.214 224.489 148.959 220.751 147.107C217.011 154.146 213.954 162.302 212.936 169.986C212.258 175.106 212.462 180.182 208.638 184.392C207.902 185.202 205.581 187.757 203.294 187.28C200.569 186.712 200.815 182.455 197.195 180.679C196.007 180.096 195.597 180.366 190.392 180.442C187.141 180.489 183.853 180.528 180.326 180.128C177.356 179.79 173.226 179.318 171.993 177.737C177.356 177.591 180.935 176.105 183.321 174.597Z" fill="url(#paint30_linear_147_772)"/>
<path d="M221.325 180.359L221.745 179.124C222.414 177.157 221.314 175.058 219.29 174.441L139.923 150.265L137.504 158.462L216.47 182.784C218.484 183.404 220.659 182.32 221.325 180.359Z" fill="url(#paint31_linear_147_772)"/>
<path d="M61.0549 128.057C67.1231 104.083 90.9023 89.6357 114.419 96.4068C138.367 103.302 152.078 129.25 144.802 153.71C137.696 177.595 113.33 190.481 90.5923 183.111C68.2477 175.869 55.1247 151.485 61.0549 128.057ZM137.894 151.594C143.908 131.124 132.434 109.443 112.435 103.625C92.7391 97.8952 72.7285 109.922 67.565 130.051C62.5005 149.793 73.5599 170.372 92.4272 176.434C111.574 182.586 131.999 171.661 137.894 151.594Z" fill="url(#paint32_linear_147_772)"/>
<path opacity="0.3" d="M139.923 150.264L150.042 153.347C150.737 156.575 152.087 158.424 153.446 159.55C158.557 163.787 165.383 159.166 174.905 164.134C179.683 166.628 178.775 168.214 183.254 169.954C190.659 172.83 194.049 168.846 200.602 171.464C207.23 174.112 207.884 179.834 211.643 179.629C213.251 179.541 215.321 178.371 217.63 173.935L219.29 174.441C221.314 175.058 222.414 177.156 221.745 179.124L221.325 180.358C220.658 182.32 218.484 183.404 216.47 182.784L137.504 158.461L139.923 150.264Z" fill="#D8DEE8"/>
<path opacity="0.56" d="M90.5536 179.715C110.359 186.088 131.503 174.801 137.618 154.036C143.859 132.838 131.977 110.38 111.26 104.364C90.8665 98.4428 70.1655 110.91 64.8344 131.741C59.6092 152.16 71.0473 173.437 90.5536 179.715Z" fill="white"/>
<path d="M59.5178 130.113C65.586 106.139 89.3651 91.6917 112.882 98.4627C136.83 105.358 150.541 131.306 143.265 155.766C136.159 179.651 111.793 192.537 89.0553 185.167C66.7107 177.925 53.5877 153.541 59.5178 130.113ZM136.357 153.65C142.37 133.18 130.897 111.499 110.898 105.681C91.202 99.9512 71.1915 111.978 66.0278 132.107C60.9633 151.849 72.0227 172.428 90.8902 178.49C110.037 184.642 130.462 173.716 136.357 153.65Z" fill="url(#paint33_linear_147_772)"/>
<path d="M61.816 130.817C67.5672 108.203 90.0153 94.6165 112.178 101.021C134.725 107.537 147.643 131.971 140.817 155.016C134.143 177.552 111.172 189.748 89.7025 182.811C68.5833 175.987 56.1884 152.944 61.816 130.817ZM136.357 153.65C142.37 133.18 130.896 111.499 110.898 105.681C91.2017 99.9513 71.1912 111.978 66.0275 132.107C60.9629 151.849 72.0223 172.428 90.8898 178.49C110.037 184.642 130.461 173.717 136.357 153.65Z" fill="url(#paint34_linear_147_772)"/>
<path d="M223.384 176.768L222.582 174.775C222.582 174.775 221.273 174.855 220.198 174.084C219.613 173.664 218.574 173.539 218.272 173.623C217.97 173.707 216.829 173.657 218.129 174.277C219.429 174.897 219.419 175.358 218.877 175.867C218.335 176.376 216.274 177.471 215.531 177.523C214.789 177.576 216.131 178.724 216.879 178.871C217.628 179.017 218.855 179.203 220.374 178.309C220.927 177.983 223.384 176.768 223.384 176.768Z" fill="url(#paint35_linear_147_772)"/>
<path d="M200.758 120.263C200.694 121.628 201.323 122.84 202.356 123.332C203.014 123.645 203.66 123.583 203.998 123.521C204.623 122.352 205.248 121.183 205.873 120.014C205.202 120.079 204.508 120.134 203.793 120.175C202.738 120.235 201.726 120.263 200.758 120.263Z" fill="url(#paint36_linear_147_772)"/>
<path d="M201.907 123.062C201.907 123.062 199.799 146.723 192.412 150.511C192.602 151.269 192.412 157.425 192.412 157.425C192.412 157.425 199.298 155.351 199.691 155.488C200.083 155.625 208.03 142.453 203.998 123.521L201.907 123.062Z" fill="url(#paint37_linear_147_772)"/>
<defs>
<linearGradient id="paint0_linear_147_772" x1="59.5397" y1="82.7145" x2="129.489" y2="213.571" gradientUnits="userSpaceOnUse">
<stop stop-color="#FF9085"/>
<stop offset="1" stop-color="#FB6FBB"/>
</linearGradient>
<linearGradient id="paint1_linear_147_772" x1="149.851" y1="24.9931" x2="55.7825" y2="178.922" gradientUnits="userSpaceOnUse">
<stop stop-color="white"/>
<stop offset="0.9964" stop-color="#EBEFF2"/>
</linearGradient>
<linearGradient id="paint2_linear_147_772" x1="46.0744" y1="197.733" x2="129.82" y2="197.733" gradientUnits="userSpaceOnUse">
<stop stop-color="white"/>
<stop offset="0.9964" stop-color="#EBEFF2"/>
</linearGradient>
<linearGradient id="paint3_linear_147_772" x1="46.0744" y1="209.311" x2="129.82" y2="209.311" gradientUnits="userSpaceOnUse">
<stop stop-color="white"/>
<stop offset="0.9964" stop-color="#EBEFF2"/>
</linearGradient>
<linearGradient id="paint4_linear_147_772" x1="46.0744" y1="220.889" x2="129.82" y2="220.889" gradientUnits="userSpaceOnUse">
<stop stop-color="white"/>
<stop offset="0.9964" stop-color="#EBEFF2"/>
</linearGradient>
<linearGradient id="paint5_linear_147_772" x1="46.0744" y1="28.3053" x2="88.1994" y2="28.3053" gradientUnits="userSpaceOnUse">
<stop stop-color="white"/>
<stop offset="0.9964" stop-color="#EBEFF2"/>
</linearGradient>
<linearGradient id="paint6_linear_147_772" x1="46.0744" y1="34.0817" x2="88.1994" y2="34.0817" gradientUnits="userSpaceOnUse">
<stop stop-color="white"/>
<stop offset="0.9964" stop-color="#EBEFF2"/>
</linearGradient>
<linearGradient id="paint7_linear_147_772" x1="46.0744" y1="39.8582" x2="88.1994" y2="39.8582" gradientUnits="userSpaceOnUse">
<stop stop-color="white"/>
<stop offset="0.9964" stop-color="#EBEFF2"/>
</linearGradient>
<linearGradient id="paint8_linear_147_772" x1="103.117" y1="163.047" x2="261.81" y2="149.62" gradientUnits="userSpaceOnUse">
<stop stop-color="#AA80F9"/>
<stop offset="0.9964" stop-color="#6165D7"/>
</linearGradient>
<linearGradient id="paint9_linear_147_772" x1="161.587" y1="182.958" x2="262.707" y2="182.958" gradientUnits="userSpaceOnUse">
<stop offset="0.0036" stop-color="#E38DDD"/>
<stop offset="1" stop-color="#9571F6"/>
</linearGradient>
<linearGradient id="paint10_linear_147_772" x1="161.824" y1="22.5045" x2="97.5851" y2="146.224" gradientUnits="userSpaceOnUse">
<stop offset="0.0036" stop-color="#E38DDD"/>
<stop offset="1" stop-color="#9571F6"/>
</linearGradient>
<linearGradient id="paint11_linear_147_772" x1="172.971" y1="20.4537" x2="74.8931" y2="180.944" gradientUnits="userSpaceOnUse">
<stop stop-color="white"/>
<stop offset="0.9964" stop-color="#EBEFF2"/>
</linearGradient>
<linearGradient id="paint12_linear_147_772" x1="84.836" y1="61.3006" x2="93.6092" y2="140.61" gradientUnits="userSpaceOnUse">
<stop stop-color="#FFC444"/>
<stop offset="0.9964" stop-color="#F36F56"/>
</linearGradient>
<linearGradient id="paint13_linear_147_772" x1="115.5" y1="124.466" x2="150.622" y2="195.405" gradientUnits="userSpaceOnUse">
<stop offset="0.0036" stop-color="#E38DDD"/>
<stop offset="1" stop-color="#9571F6"/>
</linearGradient>
<linearGradient id="paint14_linear_147_772" x1="64.2474" y1="95.9487" x2="111.283" y2="156.424" gradientUnits="userSpaceOnUse">
<stop stop-color="#AA80F9"/>
<stop offset="0.9964" stop-color="#6165D7"/>
</linearGradient>
<linearGradient id="paint15_linear_147_772" x1="161.819" y1="42.8742" x2="124.234" y2="95.2857" gradientUnits="userSpaceOnUse">
<stop stop-color="#FF9085"/>
<stop offset="1" stop-color="#FB6FBB"/>
</linearGradient>
<linearGradient id="paint16_linear_147_772" x1="48.0676" y1="40.9568" x2="11.9035" y2="159.442" gradientUnits="userSpaceOnUse">
<stop stop-color="#FFC444"/>
<stop offset="0.9964" stop-color="#F36F56"/>
</linearGradient>
<linearGradient id="paint17_linear_147_772" x1="88.8068" y1="242.268" x2="159.325" y2="143.93" gradientUnits="userSpaceOnUse">
<stop stop-color="#FF9085"/>
<stop offset="1" stop-color="#FB6FBB"/>
</linearGradient>
<linearGradient id="paint18_linear_147_772" x1="175.676" y1="236.915" x2="177.841" y2="263.643" gradientUnits="userSpaceOnUse">
<stop stop-color="#311944"/>
<stop offset="1" stop-color="#A03976"/>
</linearGradient>
<linearGradient id="paint19_linear_147_772" x1="181.134" y1="251.785" x2="180.686" y2="224.099" gradientUnits="userSpaceOnUse">
<stop stop-color="#FFC444"/>
<stop offset="0.9964" stop-color="#F36F56"/>
</linearGradient>
<linearGradient id="paint20_linear_147_772" x1="215.362" y1="233.701" x2="217.526" y2="260.428" gradientUnits="userSpaceOnUse">
<stop stop-color="#311944"/>
<stop offset="1" stop-color="#A03976"/>
</linearGradient>
<linearGradient id="paint21_linear_147_772" x1="217.51" y1="251.196" x2="217.062" y2="223.509" gradientUnits="userSpaceOnUse">
<stop stop-color="#FFC444"/>
<stop offset="0.9964" stop-color="#F36F56"/>
</linearGradient>
<linearGradient id="paint22_linear_147_772" x1="174.419" y1="206.948" x2="194.89" y2="206.899" gradientUnits="userSpaceOnUse">
<stop stop-color="#444B8C"/>
<stop offset="0.9964" stop-color="#3E4177"/>
</linearGradient>
<linearGradient id="paint23_linear_147_772" x1="174.419" y1="206.949" x2="194.89" y2="206.9" gradientUnits="userSpaceOnUse">
<stop stop-color="#444B8C"/>
<stop offset="0.9964" stop-color="#3E4177"/>
</linearGradient>
<linearGradient id="paint24_linear_147_772" x1="180.097" y1="204.917" x2="221.308" y2="204.818" gradientUnits="userSpaceOnUse">
<stop stop-color="#444B8C"/>
<stop offset="0.9964" stop-color="#3E4177"/>
</linearGradient>
<linearGradient id="paint25_linear_147_772" x1="204.964" y1="110.75" x2="200.591" y2="149.329" gradientUnits="userSpaceOnUse">
<stop stop-color="#FFC444"/>
<stop offset="0.9964" stop-color="#F36F56"/>
</linearGradient>
<linearGradient id="paint26_linear_147_772" x1="206.152" y1="119.746" x2="199.983" y2="101.593" gradientUnits="userSpaceOnUse">
<stop stop-color="#444B8C"/>
<stop offset="0.9964" stop-color="#3E4177"/>
</linearGradient>
<linearGradient id="paint27_linear_147_772" x1="201.028" y1="106.31" x2="204.464" y2="134.736" gradientUnits="userSpaceOnUse">
<stop stop-color="#FFC444"/>
<stop offset="0.9964" stop-color="#F36F56"/>
</linearGradient>
<linearGradient id="paint28_linear_147_772" x1="150.913" y1="151.1" x2="184.067" y2="151.1" gradientUnits="userSpaceOnUse">
<stop stop-color="#AA80F9"/>
<stop offset="0.9964" stop-color="#6165D7"/>
</linearGradient>
<linearGradient id="paint29_linear_147_772" x1="143.859" y1="157.914" x2="150.236" y2="161.778" gradientUnits="userSpaceOnUse">
<stop stop-color="#FFC444"/>
<stop offset="0.9964" stop-color="#F36F56"/>
</linearGradient>
<linearGradient id="paint30_linear_147_772" x1="171.993" y1="161.616" x2="240.013" y2="161.616" gradientUnits="userSpaceOnUse">
<stop stop-color="#AA80F9"/>
<stop offset="0.9964" stop-color="#6165D7"/>
</linearGradient>
<linearGradient id="paint31_linear_147_772" x1="137.504" y1="166.611" x2="221.941" y2="166.611" gradientUnits="userSpaceOnUse">
<stop stop-color="#444B8C"/>
<stop offset="0.9964" stop-color="#26264F"/>
</linearGradient>
<linearGradient id="paint32_linear_147_772" x1="59.6311" y1="139.959" x2="146.754" y2="139.959" gradientUnits="userSpaceOnUse">
<stop stop-color="#444B8C"/>
<stop offset="0.9964" stop-color="#26264F"/>
</linearGradient>
<linearGradient id="paint33_linear_147_772" x1="91.4324" y1="188.924" x2="105.444" y2="124.576" gradientUnits="userSpaceOnUse">
<stop stop-color="#444B8C"/>
<stop offset="0.9964" stop-color="#26264F"/>
</linearGradient>
<linearGradient id="paint34_linear_147_772" x1="112.27" y1="94.7579" x2="92.7155" y2="181.055" gradientUnits="userSpaceOnUse">
<stop stop-color="#444B8C"/>
<stop offset="0.9964" stop-color="#26264F"/>
</linearGradient>
<linearGradient id="paint35_linear_147_772" x1="217.299" y1="182.498" x2="220.728" y2="173.652" gradientUnits="userSpaceOnUse">
<stop stop-color="#FFC444"/>
<stop offset="0.9964" stop-color="#F36F56"/>
</linearGradient>
<linearGradient id="paint36_linear_147_772" x1="202.639" y1="110.423" x2="203.777" y2="127.09" gradientUnits="userSpaceOnUse">
<stop stop-color="#444B8C"/>
<stop offset="0.9964" stop-color="#26264F"/>
</linearGradient>
<linearGradient id="paint37_linear_147_772" x1="198.774" y1="145.836" x2="198.774" y2="104.283" gradientUnits="userSpaceOnUse">
<stop stop-color="#444B8C"/>
<stop offset="0.9964" stop-color="#26264F"/>
</linearGradient>
</defs>
</svg>
