<svg width="296" height="26" viewBox="0 0 296 26" fill="none" xmlns="http://www.w3.org/2000/svg">
<path d="M9.52784 23.4785C10.7199 24.6706 12.6527 24.6706 13.8447 23.4785C15.0368 22.2864 15.0368 20.3537 13.8447 19.1616L5.21095 10.5278C4.01887 9.33577 2.08613 9.33577 0.894057 10.5278C-0.298019 11.7199 -0.298019 13.6527 0.894057 14.8447L9.52784 23.4785Z" fill="url(#paint0_linear_103_1482)"/>
<path d="M9.52784 1.89406C10.7199 0.701981 12.6527 0.701981 13.8447 1.89406C15.0368 3.08613 15.0368 5.01887 13.8447 6.21095L5.21095 14.8447C4.01887 16.0368 2.08613 16.0368 0.894057 14.8447C-0.298019 13.6527 -0.298019 11.7199 0.894057 10.5278L9.52784 1.89406Z" fill="url(#paint1_linear_103_1482)"/>
<path d="M21.476 1.89406C20.2839 0.701981 18.3512 0.701981 17.1591 1.89406C15.967 3.08613 15.967 5.01887 17.1591 6.21095L25.7929 14.8447C26.985 16.0368 28.9177 16.0368 30.1098 14.8447C31.3019 13.6527 31.3019 11.7199 30.1098 10.5278L21.476 1.89406Z" fill="url(#paint2_linear_103_1482)"/>
<path d="M21.476 23.4785C20.2839 24.6706 18.3512 24.6706 17.1591 23.4785C15.967 22.2864 15.967 20.3537 17.1591 19.1616L25.7929 10.5278C26.985 9.33577 28.9177 9.33576 30.1098 10.5278C31.3019 11.7199 31.3019 13.6527 30.1098 14.8447L21.476 23.4785Z" fill="url(#paint3_linear_103_1482)"/>
<path d="M41.1158 23.6863V1.28628H48.9558L52.8278 20.8063H53.4038L57.2758 1.28628H65.1158V23.6863H61.0198V4.39028H60.4438L56.6038 23.6863H49.6278L45.7878 4.39028H45.2118V23.6863H41.1158ZM73.4306 24.1343C72.2999 24.1343 71.2866 23.9423 70.3906 23.5583C69.4946 23.1529 68.7799 22.5769 68.2466 21.8303C67.7346 21.0623 67.4786 20.1343 67.4786 19.0463C67.4786 17.9583 67.7346 17.0516 68.2466 16.3263C68.7799 15.5796 69.5053 15.0249 70.4226 14.6623C71.3613 14.2783 72.4279 14.0863 73.6226 14.0863H77.9746V13.1903C77.9746 12.4436 77.7399 11.8356 77.2706 11.3663C76.8013 10.8756 76.0546 10.6303 75.0306 10.6303C74.0279 10.6303 73.2813 10.8649 72.7906 11.3343C72.2999 11.7823 71.9799 12.3689 71.8306 13.0943L68.1186 11.8463C68.3746 11.0356 68.7799 10.2996 69.3346 9.63828C69.9106 8.95561 70.6679 8.41161 71.6066 8.00628C72.5666 7.57961 73.7293 7.36628 75.0946 7.36628C77.1853 7.36628 78.8386 7.88894 80.0546 8.93428C81.2706 9.97961 81.8786 11.4943 81.8786 13.4783V19.3983C81.8786 20.0383 82.1773 20.3583 82.7746 20.3583H84.0546V23.6863H81.3666C80.5773 23.6863 79.9266 23.4943 79.4146 23.1103C78.9026 22.7263 78.6466 22.2143 78.6466 21.5743V21.5423H78.0386C77.9533 21.7983 77.7613 22.1396 77.4626 22.5663C77.1639 22.9716 76.6946 23.3343 76.0546 23.6543C75.4146 23.9743 74.5399 24.1343 73.4306 24.1343ZM74.1346 20.8703C75.2653 20.8703 76.1826 20.5609 76.8866 19.9423C77.6119 19.3023 77.9746 18.4596 77.9746 17.4143V17.0943H73.9106C73.1639 17.0943 72.5773 17.2543 72.1506 17.5743C71.7239 17.8943 71.5106 18.3423 71.5106 18.9183C71.5106 19.4943 71.7346 19.9636 72.1826 20.3263C72.6306 20.6889 73.2813 20.8703 74.1346 20.8703ZM86.0426 23.6863V1.28628H90.0746V13.6703H90.6506L95.8986 7.81428H101.147L93.8186 15.4943L101.403 23.6863H96.2186L90.6506 17.3823H90.0746V23.6863H86.0426ZM109.408 24.1343C107.83 24.1343 106.432 23.8036 105.216 23.1423C104.022 22.4596 103.083 21.5103 102.4 20.2943C101.739 19.0569 101.408 17.6063 101.408 15.9423V15.5583C101.408 13.8943 101.739 12.4543 102.4 11.2383C103.062 10.0009 103.99 9.05161 105.184 8.39028C106.379 7.70761 107.766 7.36628 109.344 7.36628C110.902 7.36628 112.256 7.71828 113.408 8.42228C114.56 9.10495 115.456 10.0649 116.096 11.3023C116.736 12.5183 117.056 13.9369 117.056 15.5583V16.9343H105.504C105.547 18.0223 105.952 18.9076 106.72 19.5903C107.488 20.2729 108.427 20.6143 109.536 20.6143C110.667 20.6143 111.499 20.3689 112.032 19.8783C112.566 19.3876 112.971 18.8436 113.248 18.2463L116.544 19.9743C116.246 20.5289 115.808 21.1369 115.232 21.7983C114.678 22.4383 113.931 22.9929 112.992 23.4623C112.054 23.9103 110.859 24.1343 109.408 24.1343ZM105.536 13.9263H112.96C112.875 13.0089 112.502 12.2729 111.84 11.7183C111.2 11.1636 110.358 10.8863 109.312 10.8863C108.224 10.8863 107.36 11.1636 106.72 11.7183C106.08 12.2729 105.686 13.0089 105.536 13.9263ZM119.557 23.6863V1.28628H123.781V23.6863H119.557ZM133.243 23.6863C132.197 23.6863 131.344 23.3663 130.683 22.7263C130.043 22.0649 129.723 21.1903 129.723 20.1023V11.1423H125.755V7.81428H129.723V2.88628H133.755V7.81428H138.107V11.1423H133.755V19.3983C133.755 20.0383 134.053 20.3583 134.651 20.3583H137.723V23.6863H133.243Z" fill="#111827"/>
<path d="M139.132 23.6863L145.02 1.28628H152.38L158.268 23.6863H153.916L152.7 18.7583H144.7L143.484 23.6863H139.132ZM145.692 14.8543H151.708L148.988 3.94228H148.412L145.692 14.8543ZM167.574 24.1343C166.038 24.1343 164.64 23.8143 163.382 23.1743C162.144 22.5343 161.163 21.6063 160.438 20.3903C159.712 19.1743 159.35 17.7023 159.35 15.9743V15.5263C159.35 13.7983 159.712 12.3263 160.438 11.1103C161.163 9.89428 162.144 8.96628 163.382 8.32628C164.64 7.68628 166.038 7.36628 167.574 7.36628C169.088 7.36628 170.39 7.63294 171.478 8.16628C172.566 8.69961 173.44 9.43561 174.102 10.3743C174.784 11.2916 175.232 12.3369 175.446 13.5103L171.542 14.3423C171.456 13.7023 171.264 13.1263 170.966 12.6143C170.667 12.1023 170.24 11.6969 169.686 11.3983C169.152 11.0996 168.48 10.9503 167.67 10.9503C166.859 10.9503 166.123 11.1316 165.462 11.4943C164.822 11.8356 164.31 12.3583 163.926 13.0623C163.563 13.7449 163.382 14.5876 163.382 15.5903V15.9103C163.382 16.9129 163.563 17.7663 163.926 18.4703C164.31 19.1529 164.822 19.6756 165.462 20.0383C166.123 20.3796 166.859 20.5503 167.67 20.5503C168.886 20.5503 169.803 20.2409 170.422 19.6223C171.062 18.9823 171.467 18.1503 171.638 17.1263L175.542 18.0543C175.264 19.1849 174.784 20.2196 174.102 21.1583C173.44 22.0756 172.566 22.8009 171.478 23.3343C170.39 23.8676 169.088 24.1343 167.574 24.1343ZM185.364 24.1343C183.828 24.1343 182.43 23.8143 181.172 23.1743C179.934 22.5343 178.953 21.6063 178.228 20.3903C177.502 19.1743 177.14 17.7023 177.14 15.9743V15.5263C177.14 13.7983 177.502 12.3263 178.228 11.1103C178.953 9.89428 179.934 8.96628 181.172 8.32628C182.43 7.68628 183.828 7.36628 185.364 7.36628C186.878 7.36628 188.18 7.63294 189.268 8.16628C190.356 8.69961 191.23 9.43561 191.892 10.3743C192.574 11.2916 193.022 12.3369 193.236 13.5103L189.332 14.3423C189.246 13.7023 189.054 13.1263 188.756 12.6143C188.457 12.1023 188.03 11.6969 187.476 11.3983C186.942 11.0996 186.27 10.9503 185.46 10.9503C184.649 10.9503 183.913 11.1316 183.252 11.4943C182.612 11.8356 182.1 12.3583 181.716 13.0623C181.353 13.7449 181.172 14.5876 181.172 15.5903V15.9103C181.172 16.9129 181.353 17.7663 181.716 18.4703C182.1 19.1529 182.612 19.6756 183.252 20.0383C183.913 20.3796 184.649 20.5503 185.46 20.5503C186.676 20.5503 187.593 20.2409 188.212 19.6223C188.852 18.9823 189.257 18.1503 189.428 17.1263L193.332 18.0543C193.054 19.1849 192.574 20.2196 191.892 21.1583C191.23 22.0756 190.356 22.8009 189.268 23.3343C188.18 23.8676 186.878 24.1343 185.364 24.1343ZM202.93 24.1343C201.351 24.1343 199.954 23.8036 198.738 23.1423C197.543 22.4596 196.604 21.5103 195.922 20.2943C195.26 19.0569 194.93 17.6063 194.93 15.9423V15.5583C194.93 13.8943 195.26 12.4543 195.922 11.2383C196.583 10.0009 197.511 9.05161 198.706 8.39028C199.9 7.70761 201.287 7.36628 202.866 7.36628C204.423 7.36628 205.778 7.71828 206.93 8.42228C208.082 9.10495 208.978 10.0649 209.618 11.3023C210.258 12.5183 210.578 13.9369 210.578 15.5583V16.9343H199.026C199.068 18.0223 199.474 18.9076 200.242 19.5903C201.01 20.2729 201.948 20.6143 203.058 20.6143C204.188 20.6143 205.02 20.3689 205.554 19.8783C206.087 19.3876 206.492 18.8436 206.77 18.2463L210.066 19.9743C209.767 20.5289 209.33 21.1369 208.754 21.7983C208.199 22.4383 207.452 22.9929 206.514 23.4623C205.575 23.9103 204.38 24.1343 202.93 24.1343ZM199.058 13.9263H206.482C206.396 13.0089 206.023 12.2729 205.362 11.7183C204.722 11.1636 203.879 10.8863 202.834 10.8863C201.746 10.8863 200.882 11.1636 200.242 11.7183C199.602 12.2729 199.207 13.0089 199.058 13.9263ZM219.798 24.1343C217.729 24.1343 216.033 23.6863 214.71 22.7903C213.388 21.8943 212.588 20.6143 212.31 18.9503L216.022 17.9903C216.172 18.7369 216.417 19.3236 216.758 19.7503C217.121 20.1769 217.558 20.4863 218.07 20.6783C218.604 20.8489 219.18 20.9343 219.798 20.9343C220.737 20.9343 221.43 20.7743 221.878 20.4543C222.326 20.1129 222.55 19.6969 222.55 19.2063C222.55 18.7156 222.337 18.3423 221.91 18.0863C221.484 17.8089 220.801 17.5849 219.862 17.4143L218.966 17.2543C217.857 17.0409 216.844 16.7529 215.926 16.3903C215.009 16.0063 214.273 15.4836 213.718 14.8223C213.164 14.1609 212.886 13.3076 212.886 12.2623C212.886 10.6836 213.462 9.47828 214.614 8.64628C215.766 7.79294 217.281 7.36628 219.158 7.36628C220.929 7.36628 222.401 7.76094 223.574 8.55028C224.748 9.33961 225.516 10.3743 225.878 11.6543L222.134 12.8063C221.964 11.9956 221.612 11.4196 221.078 11.0783C220.566 10.7369 219.926 10.5663 219.158 10.5663C218.39 10.5663 217.804 10.7049 217.398 10.9823C216.993 11.2383 216.79 11.6009 216.79 12.0703C216.79 12.5823 217.004 12.9663 217.43 13.2223C217.857 13.4569 218.433 13.6383 219.158 13.7663L220.054 13.9263C221.249 14.1396 222.326 14.4276 223.286 14.7903C224.268 15.1316 225.036 15.6329 225.59 16.2943C226.166 16.9343 226.454 17.8089 226.454 18.9183C226.454 20.5823 225.846 21.8729 224.63 22.7903C223.436 23.6863 221.825 24.1343 219.798 24.1343ZM235.62 24.1343C233.55 24.1343 231.854 23.6863 230.532 22.7903C229.209 21.8943 228.409 20.6143 228.132 18.9503L231.844 17.9903C231.993 18.7369 232.238 19.3236 232.58 19.7503C232.942 20.1769 233.38 20.4863 233.892 20.6783C234.425 20.8489 235.001 20.9343 235.62 20.9343C236.558 20.9343 237.252 20.7743 237.7 20.4543C238.148 20.1129 238.372 19.6969 238.372 19.2063C238.372 18.7156 238.158 18.3423 237.732 18.0863C237.305 17.8089 236.622 17.5849 235.684 17.4143L234.788 17.2543C233.678 17.0409 232.665 16.7529 231.748 16.3903C230.83 16.0063 230.094 15.4836 229.54 14.8223C228.985 14.1609 228.708 13.3076 228.708 12.2623C228.708 10.6836 229.284 9.47828 230.436 8.64628C231.588 7.79294 233.102 7.36628 234.98 7.36628C236.75 7.36628 238.222 7.76094 239.396 8.55028C240.569 9.33961 241.337 10.3743 241.7 11.6543L237.956 12.8063C237.785 11.9956 237.433 11.4196 236.9 11.0783C236.388 10.7369 235.748 10.5663 234.98 10.5663C234.212 10.5663 233.625 10.7049 233.22 10.9823C232.814 11.2383 232.612 11.6009 232.612 12.0703C232.612 12.5823 232.825 12.9663 233.252 13.2223C233.678 13.4569 234.254 13.6383 234.98 13.7663L235.876 13.9263C237.07 14.1396 238.148 14.4276 239.108 14.7903C240.089 15.1316 240.857 15.6329 241.412 16.2943C241.988 16.9343 242.276 17.8089 242.276 18.9183C242.276 20.5823 241.668 21.8729 240.452 22.7903C239.257 23.6863 237.646 24.1343 235.62 24.1343ZM244.849 23.6863V7.81428H248.881V23.6863H244.849ZM246.865 5.95828C246.14 5.95828 245.521 5.72361 245.009 5.25428C244.518 4.78494 244.273 4.16628 244.273 3.39828C244.273 2.63028 244.518 2.01161 245.009 1.54228C245.521 1.07294 246.14 0.838278 246.865 0.838278C247.612 0.838278 248.23 1.07294 248.721 1.54228C249.212 2.01161 249.457 2.63028 249.457 3.39828C249.457 4.16628 249.212 4.78494 248.721 5.25428C248.23 5.72361 247.612 5.95828 246.865 5.95828ZM261.925 24.1343C260.496 24.1343 259.397 23.8889 258.629 23.3983C257.861 22.9076 257.296 22.3636 256.933 21.7663H256.357V23.6863H252.389V1.28628H256.421V9.63828H256.997C257.232 9.25428 257.541 8.89161 257.925 8.55028C258.33 8.20895 258.853 7.93161 259.493 7.71828C260.154 7.48361 260.965 7.36628 261.925 7.36628C263.205 7.36628 264.389 7.68628 265.477 8.32628C266.565 8.94495 267.44 9.86228 268.101 11.0783C268.762 12.2943 269.093 13.7663 269.093 15.4943V16.0063C269.093 17.7343 268.762 19.2063 268.101 20.4223C267.44 21.6383 266.565 22.5663 265.477 23.2063C264.389 23.8249 263.205 24.1343 261.925 24.1343ZM260.709 20.6143C261.946 20.6143 262.981 20.2196 263.813 19.4303C264.645 18.6196 265.061 17.4463 265.061 15.9103V15.5903C265.061 14.0543 264.645 12.8916 263.813 12.1023C263.002 11.2916 261.968 10.8863 260.709 10.8863C259.472 10.8863 258.437 11.2916 257.605 12.1023C256.773 12.8916 256.357 14.0543 256.357 15.5903V15.9103C256.357 17.4463 256.773 18.6196 257.605 19.4303C258.437 20.2196 259.472 20.6143 260.709 20.6143ZM271.835 23.6863V1.28628H275.867V23.6863H271.835ZM286.607 24.1343C285.028 24.1343 283.631 23.8036 282.415 23.1423C281.22 22.4596 280.282 21.5103 279.599 20.2943C278.938 19.0569 278.607 17.6063 278.607 15.9423V15.5583C278.607 13.8943 278.938 12.4543 279.599 11.2383C280.26 10.0009 281.188 9.05161 282.383 8.39028C283.578 7.70761 284.964 7.36628 286.543 7.36628C288.1 7.36628 289.455 7.71828 290.607 8.42228C291.759 9.10495 292.655 10.0649 293.295 11.3023C293.935 12.5183 294.255 13.9369 294.255 15.5583V16.9343H282.703C282.746 18.0223 283.151 18.9076 283.919 19.5903C284.687 20.2729 285.626 20.6143 286.735 20.6143C287.866 20.6143 288.698 20.3689 289.231 19.8783C289.764 19.3876 290.17 18.8436 290.447 18.2463L293.743 19.9743C293.444 20.5289 293.007 21.1369 292.431 21.7983C291.876 22.4383 291.13 22.9929 290.191 23.4623C289.252 23.9103 288.058 24.1343 286.607 24.1343ZM282.735 13.9263H290.159C290.074 13.0089 289.7 12.2729 289.039 11.7183C288.399 11.1636 287.556 10.8863 286.511 10.8863C285.423 10.8863 284.559 11.1636 283.919 11.7183C283.279 12.2729 282.884 13.0089 282.735 13.9263Z" fill="#DF54D3"/>
<defs>
<linearGradient id="paint0_linear_103_1482" x1="13.8447" y1="23.4785" x2="0.894067" y2="10.5278" gradientUnits="userSpaceOnUse">
<stop stop-color="#D319BB"/>
<stop offset="1" stop-color="#690BF9"/>
</linearGradient>
<linearGradient id="paint1_linear_103_1482" x1="13.8447" y1="1.89405" x2="0.894067" y2="14.8447" gradientUnits="userSpaceOnUse">
<stop stop-color="#DC22B1"/>
<stop offset="1" stop-color="#EC4285" stop-opacity="0.73"/>
</linearGradient>
<linearGradient id="paint2_linear_103_1482" x1="17.1591" y1="1.89405" x2="30.1098" y2="14.8447" gradientUnits="userSpaceOnUse">
<stop stop-color="#690BF9"/>
<stop offset="1" stop-color="#D319BB"/>
</linearGradient>
<linearGradient id="paint3_linear_103_1482" x1="17.1591" y1="23.4785" x2="30.1098" y2="10.5278" gradientUnits="userSpaceOnUse">
<stop stop-color="#EC4285"/>
<stop offset="1" stop-color="#DC22B1" stop-opacity="0.75"/>
</linearGradient>
</defs>
</svg>
