<svg width="209" height="19" viewBox="0 0 209 19" fill="none" xmlns="http://www.w3.org/2000/svg">
<path d="M5.09471e-05 18.2V3.33786e-06H5.27805L9.25605 16.328H9.67205L13.6501 3.33786e-06H18.9281V18.2H16.1981V1.976H15.7821L11.8301 18.2H7.09805L3.14605 1.976H2.73005V18.2H5.09471e-05ZM26.2607 18.564C25.342 18.564 24.5187 18.408 23.7907 18.096C23.08 17.784 22.508 17.3247 22.0747 16.718C21.6587 16.1113 21.4507 15.3747 21.4507 14.508C21.4507 13.624 21.6587 12.896 22.0747 12.324C22.508 11.7347 23.0887 11.2927 23.8167 10.998C24.562 10.7033 25.4027 10.556 26.3387 10.556H30.2387V9.724C30.2387 8.97867 30.0133 8.38067 29.5627 7.93C29.112 7.47934 28.4187 7.254 27.4827 7.254C26.564 7.254 25.862 7.47067 25.3767 7.904C24.8913 8.33734 24.5707 8.90067 24.4147 9.594L21.9187 8.788C22.1267 8.09467 22.456 7.47067 22.9067 6.916C23.3747 6.344 23.99 5.88467 24.7527 5.538C25.5153 5.19134 26.434 5.018 27.5087 5.018C29.1727 5.018 30.4813 5.44267 31.4347 6.292C32.388 7.14134 32.8647 8.346 32.8647 9.906V15.184C32.8647 15.704 33.1073 15.964 33.5927 15.964H34.6847V18.2H32.6827C32.076 18.2 31.582 18.044 31.2007 17.732C30.8193 17.42 30.6287 16.9953 30.6287 16.458V16.38H30.2387C30.1 16.64 29.892 16.9433 29.6147 17.29C29.3373 17.6367 28.93 17.94 28.3927 18.2C27.8553 18.4427 27.1447 18.564 26.2607 18.564ZM26.6507 16.354C27.7253 16.354 28.592 16.0507 29.2507 15.444C29.9093 14.82 30.2387 13.9707 30.2387 12.896V12.636H26.4947C25.784 12.636 25.212 12.792 24.7787 13.104C24.3453 13.3987 24.1287 13.8407 24.1287 14.43C24.1287 15.0193 24.354 15.4873 24.8047 15.834C25.2553 16.1807 25.8707 16.354 26.6507 16.354ZM36.7685 18.2V3.33786e-06H39.4465V10.374H39.8625L44.9065 5.382H48.4685L41.9945 11.596L48.6765 18.2H45.1405L39.8625 12.87H39.4465V18.2H36.7685ZM55.7085 18.564C54.4085 18.564 53.2732 18.2953 52.3025 17.758C51.3318 17.2033 50.5692 16.432 50.0145 15.444C49.4772 14.4387 49.2085 13.2773 49.2085 11.96V11.648C49.2085 10.3133 49.4772 9.152 50.0145 8.164C50.5518 7.15867 51.2972 6.38734 52.2505 5.85C53.2212 5.29534 54.3392 5.018 55.6045 5.018C56.8352 5.018 57.9098 5.29534 58.8285 5.85C59.7645 6.38734 60.4925 7.14134 61.0125 8.112C61.5325 9.08267 61.7925 10.218 61.7925 11.518V12.532H51.9385C51.9732 13.6587 52.3458 14.56 53.0565 15.236C53.7845 15.8947 54.6858 16.224 55.7605 16.224C56.7658 16.224 57.5198 15.9987 58.0225 15.548C58.5425 15.0973 58.9412 14.5773 59.2185 13.988L61.4285 15.132C61.1858 15.6173 60.8305 16.1287 60.3625 16.666C59.9118 17.2033 59.3138 17.654 58.5685 18.018C57.8232 18.382 56.8698 18.564 55.7085 18.564ZM51.9645 10.478H59.0625C58.9932 9.50734 58.6465 8.75334 58.0225 8.216C57.3985 7.66134 56.5838 7.384 55.5785 7.384C54.5732 7.384 53.7498 7.66134 53.1085 8.216C52.4845 8.75334 52.1032 9.50734 51.9645 10.478ZM64.4181 18.2V3.33786e-06H67.2261V18.2H64.4181ZM75.3877 18.2C74.6077 18.2 73.9837 17.966 73.5157 17.498C73.065 17.03 72.8397 16.406 72.8397 15.626V7.644H69.3037V5.382H72.8397V1.144H75.5177V5.382H79.3397V7.644H75.5177V15.158C75.5177 15.678 75.7603 15.938 76.2457 15.938H78.9237V18.2H75.3877Z" fill="#111827"/>
<path d="M80.5359 18.2L85.7359 3.33786e-06H90.6759L95.8499 18.2H92.9639L91.7679 13.91H84.6439L83.4479 18.2H80.5359ZM85.3459 11.31H91.0659L88.4139 1.742H87.9979L85.3459 11.31ZM103.828 18.564C102.597 18.564 101.479 18.304 100.474 17.784C99.4856 17.264 98.6969 16.51 98.1076 15.522C97.5356 14.534 97.2496 13.3467 97.2496 11.96V11.622C97.2496 10.2353 97.5356 9.05667 98.1076 8.086C98.6969 7.098 99.4856 6.344 100.474 5.824C101.479 5.28667 102.597 5.018 103.828 5.018C105.058 5.018 106.107 5.24334 106.974 5.694C107.84 6.14467 108.534 6.74267 109.054 7.488C109.591 8.23334 109.938 9.05667 110.094 9.958L107.494 10.504C107.407 9.932 107.225 9.412 106.948 8.944C106.67 8.476 106.28 8.10334 105.778 7.826C105.275 7.54867 104.642 7.41 103.88 7.41C103.134 7.41 102.458 7.58334 101.852 7.93C101.262 8.25934 100.794 8.74467 100.448 9.386C100.101 10.01 99.9276 10.7727 99.9276 11.674V11.908C99.9276 12.8093 100.101 13.5807 100.448 14.222C100.794 14.8633 101.262 15.3487 101.852 15.678C102.458 16.0073 103.134 16.172 103.88 16.172C105.006 16.172 105.864 15.886 106.454 15.314C107.043 14.7247 107.416 13.9793 107.572 13.078L110.172 13.676C109.964 14.56 109.591 15.3747 109.054 16.12C108.534 16.8653 107.84 17.4633 106.974 17.914C106.107 18.3473 105.058 18.564 103.828 18.564ZM118.694 18.564C117.464 18.564 116.346 18.304 115.34 17.784C114.352 17.264 113.564 16.51 112.974 15.522C112.402 14.534 112.116 13.3467 112.116 11.96V11.622C112.116 10.2353 112.402 9.05667 112.974 8.086C113.564 7.098 114.352 6.344 115.34 5.824C116.346 5.28667 117.464 5.018 118.694 5.018C119.925 5.018 120.974 5.24334 121.84 5.694C122.707 6.14467 123.4 6.74267 123.92 7.488C124.458 8.23334 124.804 9.05667 124.96 9.958L122.36 10.504C122.274 9.932 122.092 9.412 121.814 8.944C121.537 8.476 121.147 8.10334 120.644 7.826C120.142 7.54867 119.509 7.41 118.746 7.41C118.001 7.41 117.325 7.58334 116.718 7.93C116.129 8.25934 115.661 8.74467 115.314 9.386C114.968 10.01 114.794 10.7727 114.794 11.674V11.908C114.794 12.8093 114.968 13.5807 115.314 14.222C115.661 14.8633 116.129 15.3487 116.718 15.678C117.325 16.0073 118.001 16.172 118.746 16.172C119.873 16.172 120.731 15.886 121.32 15.314C121.91 14.7247 122.282 13.9793 122.438 13.078L125.038 13.676C124.83 14.56 124.458 15.3747 123.92 16.12C123.4 16.8653 122.707 17.4633 121.84 17.914C120.974 18.3473 119.925 18.564 118.694 18.564ZM133.483 18.564C132.183 18.564 131.048 18.2953 130.077 17.758C129.106 17.2033 128.344 16.432 127.789 15.444C127.252 14.4387 126.983 13.2773 126.983 11.96V11.648C126.983 10.3133 127.252 9.152 127.789 8.164C128.326 7.15867 129.072 6.38734 130.025 5.85C130.996 5.29534 132.114 5.018 133.379 5.018C134.61 5.018 135.684 5.29534 136.603 5.85C137.539 6.38734 138.267 7.14134 138.787 8.112C139.307 9.08267 139.567 10.218 139.567 11.518V12.532H129.713C129.748 13.6587 130.12 14.56 130.831 15.236C131.559 15.8947 132.46 16.224 133.535 16.224C134.54 16.224 135.294 15.9987 135.797 15.548C136.317 15.0973 136.716 14.5773 136.993 13.988L139.203 15.132C138.96 15.6173 138.605 16.1287 138.137 16.666C137.686 17.2033 137.088 17.654 136.343 18.018C135.598 18.382 134.644 18.564 133.483 18.564ZM129.739 10.478H136.837C136.768 9.50734 136.421 8.75334 135.797 8.216C135.173 7.66134 134.358 7.384 133.353 7.384C132.348 7.384 131.524 7.66134 130.883 8.216C130.259 8.75334 129.878 9.50734 129.739 10.478ZM147.523 18.564C145.893 18.564 144.541 18.2 143.467 17.472C142.392 16.744 141.733 15.6433 141.491 14.17L143.987 13.572C144.125 14.2827 144.359 14.846 144.689 15.262C145.018 15.678 145.425 15.9727 145.911 16.146C146.413 16.3193 146.951 16.406 147.523 16.406C148.372 16.406 149.022 16.2413 149.473 15.912C149.941 15.5827 150.175 15.158 150.175 14.638C150.175 14.118 149.958 13.7367 149.525 13.494C149.091 13.2513 148.45 13.052 147.601 12.896L146.717 12.74C145.85 12.584 145.061 12.3587 144.351 12.064C143.64 11.7693 143.077 11.362 142.661 10.842C142.245 10.322 142.037 9.65467 142.037 8.84C142.037 7.62667 142.487 6.69067 143.389 6.032C144.29 5.356 145.486 5.018 146.977 5.018C148.415 5.018 149.594 5.34734 150.513 6.006C151.449 6.64734 152.055 7.52267 152.333 8.632L149.837 9.334C149.681 8.554 149.351 8.008 148.849 7.696C148.346 7.36667 147.722 7.202 146.977 7.202C146.249 7.202 145.677 7.34067 145.261 7.618C144.845 7.878 144.637 8.25067 144.637 8.736C144.637 9.256 144.836 9.63734 145.235 9.88C145.651 10.1227 146.205 10.3047 146.899 10.426L147.809 10.582C148.727 10.738 149.568 10.9547 150.331 11.232C151.093 11.5093 151.691 11.908 152.125 12.428C152.575 12.948 152.801 13.6413 152.801 14.508C152.801 15.7907 152.324 16.7873 151.371 17.498C150.417 18.2087 149.135 18.564 147.523 18.564ZM160.663 18.564C159.033 18.564 157.681 18.2 156.607 17.472C155.532 16.744 154.873 15.6433 154.631 14.17L157.127 13.572C157.265 14.2827 157.499 14.846 157.829 15.262C158.158 15.678 158.565 15.9727 159.051 16.146C159.553 16.3193 160.091 16.406 160.663 16.406C161.512 16.406 162.162 16.2413 162.613 15.912C163.081 15.5827 163.315 15.158 163.315 14.638C163.315 14.118 163.098 13.7367 162.665 13.494C162.231 13.2513 161.59 13.052 160.741 12.896L159.857 12.74C158.99 12.584 158.201 12.3587 157.491 12.064C156.78 11.7693 156.217 11.362 155.801 10.842C155.385 10.322 155.177 9.65467 155.177 8.84C155.177 7.62667 155.627 6.69067 156.529 6.032C157.43 5.356 158.626 5.018 160.117 5.018C161.555 5.018 162.734 5.34734 163.653 6.006C164.589 6.64734 165.195 7.52267 165.473 8.632L162.977 9.334C162.821 8.554 162.491 8.008 161.989 7.696C161.486 7.36667 160.862 7.202 160.117 7.202C159.389 7.202 158.817 7.34067 158.401 7.618C157.985 7.878 157.777 8.25067 157.777 8.736C157.777 9.256 157.976 9.63734 158.375 9.88C158.791 10.1227 159.345 10.3047 160.039 10.426L160.949 10.582C161.867 10.738 162.708 10.9547 163.471 11.232C164.233 11.5093 164.831 11.908 165.265 12.428C165.715 12.948 165.941 13.6413 165.941 14.508C165.941 15.7907 165.464 16.7873 164.511 17.498C163.557 18.2087 162.275 18.564 160.663 18.564ZM168.551 18.2V5.382H171.229V18.2H168.551ZM169.903 3.64C169.383 3.64 168.941 3.47534 168.577 3.146C168.23 2.79934 168.057 2.35734 168.057 1.82C168.057 1.28267 168.23 0.849338 168.577 0.520004C168.941 0.173337 169.383 3.33786e-06 169.903 3.33786e-06C170.44 3.33786e-06 170.882 0.173337 171.229 0.520004C171.576 0.849338 171.749 1.28267 171.749 1.82C171.749 2.35734 171.576 2.79934 171.229 3.146C170.882 3.47534 170.44 3.64 169.903 3.64ZM182.093 18.564C180.845 18.564 179.883 18.3387 179.207 17.888C178.549 17.4373 178.055 16.9347 177.725 16.38H177.309V18.2H174.683V3.33786e-06H177.361V7.124H177.777C177.985 6.77734 178.263 6.448 178.609 6.136C178.956 5.80667 179.415 5.538 179.987 5.33C180.559 5.122 181.261 5.018 182.093 5.018C183.168 5.018 184.156 5.278 185.057 5.798C185.959 6.318 186.678 7.072 187.215 8.06C187.753 9.048 188.021 10.2267 188.021 11.596V11.986C188.021 13.3727 187.744 14.56 187.189 15.548C186.652 16.5187 185.933 17.264 185.031 17.784C184.147 18.304 183.168 18.564 182.093 18.564ZM181.313 16.224C182.475 16.224 183.428 15.8513 184.173 15.106C184.936 14.3607 185.317 13.2947 185.317 11.908V11.674C185.317 10.3047 184.945 9.24734 184.199 8.502C183.454 7.75667 182.492 7.384 181.313 7.384C180.169 7.384 179.216 7.75667 178.453 8.502C177.708 9.24734 177.335 10.3047 177.335 11.674V11.908C177.335 13.2947 177.708 14.3607 178.453 15.106C179.216 15.8513 180.169 16.224 181.313 16.224ZM190.82 18.2V3.33786e-06H193.498V18.2H190.82ZM202.828 18.564C201.528 18.564 200.393 18.2953 199.422 17.758C198.451 17.2033 197.689 16.432 197.134 15.444C196.597 14.4387 196.328 13.2773 196.328 11.96V11.648C196.328 10.3133 196.597 9.152 197.134 8.164C197.671 7.15867 198.417 6.38734 199.37 5.85C200.341 5.29534 201.459 5.018 202.724 5.018C203.955 5.018 205.029 5.29534 205.948 5.85C206.884 6.38734 207.612 7.14134 208.132 8.112C208.652 9.08267 208.912 10.218 208.912 11.518V12.532H199.058C199.093 13.6587 199.465 14.56 200.176 15.236C200.904 15.8947 201.805 16.224 202.88 16.224C203.885 16.224 204.639 15.9987 205.142 15.548C205.662 15.0973 206.061 14.5773 206.338 13.988L208.548 15.132C208.305 15.6173 207.95 16.1287 207.482 16.666C207.031 17.2033 206.433 17.654 205.688 18.018C204.943 18.382 203.989 18.564 202.828 18.564ZM199.084 10.478H206.182C206.113 9.50734 205.766 8.75334 205.142 8.216C204.518 7.66134 203.703 7.384 202.698 7.384C201.693 7.384 200.869 7.66134 200.228 8.216C199.604 8.75334 199.223 9.50734 199.084 10.478Z" fill="#BD42B2"/>
</svg>
