<svg width="254" height="24" viewBox="0 0 254 24" fill="none" xmlns="http://www.w3.org/2000/svg">
<path d="M-0.000304699 22.848V0.447998H7.8397L11.7117 19.968H12.2877L16.1597 0.447998H23.9997V22.848H19.9037V3.552H19.3277L15.4877 22.848H8.5117L4.6717 3.552H4.0957V22.848H-0.000304699ZM32.3144 23.296C31.1838 23.296 30.1704 23.104 29.2744 22.72C28.3784 22.3147 27.6638 21.7387 27.1304 20.992C26.6184 20.224 26.3624 19.296 26.3624 18.208C26.3624 17.12 26.6184 16.2133 27.1304 15.488C27.6638 14.7413 28.3891 14.1867 29.3064 13.824C30.2451 13.44 31.3118 13.248 32.5064 13.248H36.8584V12.352C36.8584 11.6053 36.6238 10.9973 36.1544 10.528C35.6851 10.0373 34.9384 9.792 33.9144 9.792C32.9118 9.792 32.1651 10.0267 31.6744 10.496C31.1838 10.944 30.8638 11.5307 30.7144 12.256L27.0024 11.008C27.2584 10.1973 27.6638 9.46133 28.2184 8.8C28.7944 8.11733 29.5518 7.57333 30.4904 7.168C31.4504 6.74133 32.6131 6.528 33.9784 6.528C36.0691 6.528 37.7224 7.05066 38.9384 8.096C40.1544 9.14133 40.7624 10.656 40.7624 12.64V18.56C40.7624 19.2 41.0611 19.52 41.6584 19.52H42.9384V22.848H40.2504C39.4611 22.848 38.8104 22.656 38.2984 22.272C37.7864 21.888 37.5304 21.376 37.5304 20.736V20.704H36.9224C36.8371 20.96 36.6451 21.3013 36.3464 21.728C36.0478 22.1333 35.5784 22.496 34.9384 22.816C34.2984 23.136 33.4238 23.296 32.3144 23.296ZM33.0184 20.032C34.1491 20.032 35.0664 19.7227 35.7704 19.104C36.4958 18.464 36.8584 17.6213 36.8584 16.576V16.256H32.7944C32.0478 16.256 31.4611 16.416 31.0344 16.736C30.6078 17.056 30.3944 17.504 30.3944 18.08C30.3944 18.656 30.6184 19.1253 31.0664 19.488C31.5144 19.8507 32.1651 20.032 33.0184 20.032ZM44.9264 22.848V0.447998H48.9584V12.832H49.5344L54.7824 6.976H60.0304L52.7024 14.656L60.2864 22.848H55.1024L49.5344 16.544H48.9584V22.848H44.9264ZM68.2922 23.296C66.7135 23.296 65.3162 22.9653 64.1002 22.304C62.9055 21.6213 61.9669 20.672 61.2842 19.456C60.6229 18.2187 60.2922 16.768 60.2922 15.104V14.72C60.2922 13.056 60.6229 11.616 61.2842 10.4C61.9455 9.16267 62.8735 8.21333 64.0682 7.552C65.2629 6.86933 66.6495 6.528 68.2282 6.528C69.7855 6.528 71.1402 6.88 72.2922 7.584C73.4442 8.26667 74.3402 9.22667 74.9802 10.464C75.6202 11.68 75.9402 13.0987 75.9402 14.72V16.096H64.3882C64.4309 17.184 64.8362 18.0693 65.6042 18.752C66.3722 19.4347 67.3109 19.776 68.4202 19.776C69.5509 19.776 70.3829 19.5307 70.9162 19.04C71.4495 18.5493 71.8549 18.0053 72.1322 17.408L75.4282 19.136C75.1295 19.6907 74.6922 20.2987 74.1162 20.96C73.5615 21.6 72.8149 22.1547 71.8762 22.624C70.9375 23.072 69.7429 23.296 68.2922 23.296ZM64.4202 13.088H71.8442C71.7589 12.1707 71.3855 11.4347 70.7242 10.88C70.0842 10.3253 69.2415 10.048 68.1962 10.048C67.1082 10.048 66.2442 10.3253 65.6042 10.88C64.9642 11.4347 64.5695 12.1707 64.4202 13.088ZM78.4409 22.848V0.447998H82.6649V22.848H78.4409ZM92.1264 22.848C91.0811 22.848 90.2278 22.528 89.5664 21.888C88.9264 21.2267 88.6064 20.352 88.6064 19.264V10.304H84.6384V6.976H88.6064V2.048H92.6384V6.976H96.9904V10.304H92.6384V18.56C92.6384 19.2 92.9371 19.52 93.5344 19.52H96.6064V22.848H92.1264Z" fill="white"/>
<path d="M98.0162 22.848L103.904 0.447998H111.264L117.152 22.848H112.8L111.584 17.92H103.584L102.368 22.848H98.0162ZM104.576 14.016H110.592L107.872 3.104H107.296L104.576 14.016ZM126.457 23.296C124.921 23.296 123.524 22.976 122.265 22.336C121.028 21.696 120.047 20.768 119.321 19.552C118.596 18.336 118.233 16.864 118.233 15.136V14.688C118.233 12.96 118.596 11.488 119.321 10.272C120.047 9.056 121.028 8.128 122.265 7.488C123.524 6.848 124.921 6.528 126.457 6.528C127.972 6.528 129.273 6.79467 130.361 7.328C131.449 7.86133 132.324 8.59733 132.985 9.536C133.668 10.4533 134.116 11.4987 134.329 12.672L130.425 13.504C130.34 12.864 130.148 12.288 129.849 11.776C129.551 11.264 129.124 10.8587 128.569 10.56C128.036 10.2613 127.364 10.112 126.553 10.112C125.743 10.112 125.007 10.2933 124.345 10.656C123.705 10.9973 123.193 11.52 122.809 12.224C122.447 12.9067 122.265 13.7493 122.265 14.752V15.072C122.265 16.0747 122.447 16.928 122.809 17.632C123.193 18.3147 123.705 18.8373 124.345 19.2C125.007 19.5413 125.743 19.712 126.553 19.712C127.769 19.712 128.687 19.4027 129.305 18.784C129.945 18.144 130.351 17.312 130.521 16.288L134.425 17.216C134.148 18.3467 133.668 19.3813 132.985 20.32C132.324 21.2373 131.449 21.9627 130.361 22.496C129.273 23.0293 127.972 23.296 126.457 23.296ZM144.247 23.296C142.711 23.296 141.314 22.976 140.055 22.336C138.818 21.696 137.837 20.768 137.111 19.552C136.386 18.336 136.023 16.864 136.023 15.136V14.688C136.023 12.96 136.386 11.488 137.111 10.272C137.837 9.056 138.818 8.128 140.055 7.488C141.314 6.848 142.711 6.528 144.247 6.528C145.762 6.528 147.063 6.79467 148.151 7.328C149.239 7.86133 150.114 8.59733 150.775 9.536C151.458 10.4533 151.906 11.4987 152.119 12.672L148.215 13.504C148.13 12.864 147.938 12.288 147.639 11.776C147.341 11.264 146.914 10.8587 146.359 10.56C145.826 10.2613 145.154 10.112 144.343 10.112C143.533 10.112 142.797 10.2933 142.135 10.656C141.495 10.9973 140.983 11.52 140.599 12.224C140.237 12.9067 140.055 13.7493 140.055 14.752V15.072C140.055 16.0747 140.237 16.928 140.599 17.632C140.983 18.3147 141.495 18.8373 142.135 19.2C142.797 19.5413 143.533 19.712 144.343 19.712C145.559 19.712 146.477 19.4027 147.095 18.784C147.735 18.144 148.141 17.312 148.311 16.288L152.215 17.216C151.938 18.3467 151.458 19.3813 150.775 20.32C150.114 21.2373 149.239 21.9627 148.151 22.496C147.063 23.0293 145.762 23.296 144.247 23.296ZM161.813 23.296C160.235 23.296 158.837 22.9653 157.621 22.304C156.427 21.6213 155.488 20.672 154.805 19.456C154.144 18.2187 153.813 16.768 153.813 15.104V14.72C153.813 13.056 154.144 11.616 154.805 10.4C155.467 9.16267 156.395 8.21333 157.589 7.552C158.784 6.86933 160.171 6.528 161.749 6.528C163.307 6.528 164.661 6.88 165.813 7.584C166.965 8.26667 167.861 9.22667 168.501 10.464C169.141 11.68 169.461 13.0987 169.461 14.72V16.096H157.909C157.952 17.184 158.357 18.0693 159.125 18.752C159.893 19.4347 160.832 19.776 161.941 19.776C163.072 19.776 163.904 19.5307 164.437 19.04C164.971 18.5493 165.376 18.0053 165.653 17.408L168.949 19.136C168.651 19.6907 168.213 20.2987 167.637 20.96C167.083 21.6 166.336 22.1547 165.397 22.624C164.459 23.072 163.264 23.296 161.813 23.296ZM157.941 13.088H165.365C165.28 12.1707 164.907 11.4347 164.245 10.88C163.605 10.3253 162.763 10.048 161.717 10.048C160.629 10.048 159.765 10.3253 159.125 10.88C158.485 11.4347 158.091 12.1707 157.941 13.088ZM178.682 23.296C176.613 23.296 174.917 22.848 173.594 21.952C172.272 21.056 171.472 19.776 171.194 18.112L174.906 17.152C175.056 17.8987 175.301 18.4853 175.642 18.912C176.005 19.3387 176.442 19.648 176.954 19.84C177.488 20.0107 178.064 20.096 178.682 20.096C179.621 20.096 180.314 19.936 180.762 19.616C181.21 19.2747 181.434 18.8587 181.434 18.368C181.434 17.8773 181.221 17.504 180.794 17.248C180.368 16.9707 179.685 16.7467 178.746 16.576L177.85 16.416C176.741 16.2027 175.728 15.9147 174.81 15.552C173.893 15.168 173.157 14.6453 172.602 13.984C172.048 13.3227 171.77 12.4693 171.77 11.424C171.77 9.84533 172.346 8.64 173.498 7.808C174.65 6.95466 176.165 6.528 178.042 6.528C179.813 6.528 181.285 6.92266 182.458 7.712C183.632 8.50133 184.4 9.536 184.762 10.816L181.018 11.968C180.848 11.1573 180.496 10.5813 179.962 10.24C179.45 9.89867 178.81 9.728 178.042 9.728C177.274 9.728 176.688 9.86667 176.282 10.144C175.877 10.4 175.674 10.7627 175.674 11.232C175.674 11.744 175.888 12.128 176.314 12.384C176.741 12.6187 177.317 12.8 178.042 12.928L178.938 13.088C180.133 13.3013 181.21 13.5893 182.17 13.952C183.152 14.2933 183.92 14.7947 184.474 15.456C185.05 16.096 185.338 16.9707 185.338 18.08C185.338 19.744 184.73 21.0347 183.514 21.952C182.32 22.848 180.709 23.296 178.682 23.296ZM194.503 23.296C192.434 23.296 190.738 22.848 189.415 21.952C188.093 21.056 187.293 19.776 187.015 18.112L190.727 17.152C190.877 17.8987 191.122 18.4853 191.463 18.912C191.826 19.3387 192.263 19.648 192.775 19.84C193.309 20.0107 193.885 20.096 194.503 20.096C195.442 20.096 196.135 19.936 196.583 19.616C197.031 19.2747 197.255 18.8587 197.255 18.368C197.255 17.8773 197.042 17.504 196.615 17.248C196.189 16.9707 195.506 16.7467 194.567 16.576L193.671 16.416C192.562 16.2027 191.549 15.9147 190.631 15.552C189.714 15.168 188.978 14.6453 188.423 13.984C187.869 13.3227 187.591 12.4693 187.591 11.424C187.591 9.84533 188.167 8.64 189.319 7.808C190.471 6.95466 191.986 6.528 193.863 6.528C195.634 6.528 197.106 6.92266 198.279 7.712C199.453 8.50133 200.221 9.536 200.583 10.816L196.839 11.968C196.669 11.1573 196.317 10.5813 195.783 10.24C195.271 9.89867 194.631 9.728 193.863 9.728C193.095 9.728 192.509 9.86667 192.103 10.144C191.698 10.4 191.495 10.7627 191.495 11.232C191.495 11.744 191.709 12.128 192.135 12.384C192.562 12.6187 193.138 12.8 193.863 12.928L194.759 13.088C195.954 13.3013 197.031 13.5893 197.991 13.952C198.973 14.2933 199.741 14.7947 200.295 15.456C200.871 16.096 201.159 16.9707 201.159 18.08C201.159 19.744 200.551 21.0347 199.335 21.952C198.141 22.848 196.53 23.296 194.503 23.296ZM203.733 22.848V6.976H207.765V22.848H203.733ZM205.749 5.12C205.023 5.12 204.405 4.88533 203.893 4.416C203.402 3.94666 203.157 3.328 203.157 2.56C203.157 1.792 203.402 1.17333 203.893 0.703999C204.405 0.234665 205.023 -1.90735e-06 205.749 -1.90735e-06C206.495 -1.90735e-06 207.114 0.234665 207.605 0.703999C208.095 1.17333 208.341 1.792 208.341 2.56C208.341 3.328 208.095 3.94666 207.605 4.416C207.114 4.88533 206.495 5.12 205.749 5.12ZM220.809 23.296C219.379 23.296 218.281 23.0507 217.513 22.56C216.745 22.0693 216.179 21.5253 215.817 20.928H215.241V22.848H211.273V0.447998H215.305V8.8H215.881C216.115 8.416 216.425 8.05333 216.809 7.712C217.214 7.37067 217.737 7.09333 218.377 6.88C219.038 6.64533 219.849 6.528 220.809 6.528C222.089 6.528 223.273 6.848 224.361 7.488C225.449 8.10667 226.323 9.024 226.985 10.24C227.646 11.456 227.977 12.928 227.977 14.656V15.168C227.977 16.896 227.646 18.368 226.985 19.584C226.323 20.8 225.449 21.728 224.361 22.368C223.273 22.9867 222.089 23.296 220.809 23.296ZM219.593 19.776C220.83 19.776 221.865 19.3813 222.697 18.592C223.529 17.7813 223.945 16.608 223.945 15.072V14.752C223.945 13.216 223.529 12.0533 222.697 11.264C221.886 10.4533 220.851 10.048 219.593 10.048C218.355 10.048 217.321 10.4533 216.489 11.264C215.657 12.0533 215.241 13.216 215.241 14.752V15.072C215.241 16.608 215.657 17.7813 216.489 18.592C217.321 19.3813 218.355 19.776 219.593 19.776ZM230.719 22.848V0.447998H234.751V22.848H230.719ZM245.491 23.296C243.912 23.296 242.515 22.9653 241.299 22.304C240.104 21.6213 239.166 20.672 238.483 19.456C237.822 18.2187 237.491 16.768 237.491 15.104V14.72C237.491 13.056 237.822 11.616 238.483 10.4C239.144 9.16267 240.072 8.21333 241.267 7.552C242.462 6.86933 243.848 6.528 245.427 6.528C246.984 6.528 248.339 6.88 249.491 7.584C250.643 8.26667 251.539 9.22667 252.179 10.464C252.819 11.68 253.139 13.0987 253.139 14.72V16.096H241.587C241.63 17.184 242.035 18.0693 242.803 18.752C243.571 19.4347 244.51 19.776 245.619 19.776C246.75 19.776 247.582 19.5307 248.115 19.04C248.648 18.5493 249.054 18.0053 249.331 17.408L252.627 19.136C252.328 19.6907 251.891 20.2987 251.315 20.96C250.76 21.6 250.014 22.1547 249.075 22.624C248.136 23.072 246.942 23.296 245.491 23.296ZM241.619 13.088H249.043C248.958 12.1707 248.584 11.4347 247.923 10.88C247.283 10.3253 246.44 10.048 245.395 10.048C244.307 10.048 243.443 10.3253 242.803 10.88C242.163 11.4347 241.768 12.1707 241.619 13.088Z" fill="#DF54D3"/>
</svg>
