<svg width="305" height="33" viewBox="0 0 305 33" fill="none" xmlns="http://www.w3.org/2000/svg">
<path d="M12.4853 30.4559C14.0474 32.0179 16.58 32.0179 18.1421 30.4559C19.7042 28.8938 19.7042 26.3611 18.1421 24.799L6.82843 13.4853C5.26633 11.9232 2.73367 11.9232 1.17157 13.4853C-0.390524 15.0474 -0.390524 17.58 1.17157 19.1421L12.4853 30.4559Z" fill="url(#paint0_linear_625_1619)"/>
<path d="M12.4853 2.17157C14.0474 0.609476 16.58 0.609476 18.1421 2.17157C19.7042 3.73367 19.7042 6.26633 18.1421 7.82843L6.82843 19.1421C5.26633 20.7042 2.73367 20.7042 1.17157 19.1421C-0.390524 17.58 -0.390524 15.0474 1.17157 13.4853L12.4853 2.17157Z" fill="url(#paint1_linear_625_1619)"/>
<path d="M28.1422 2.17157C26.5801 0.609476 24.0474 0.609476 22.4853 2.17157C20.9232 3.73367 20.9232 6.26633 22.4853 7.82843L33.799 19.1421C35.3611 20.7042 37.8938 20.7042 39.4559 19.1421C41.018 17.58 41.018 15.0474 39.4559 13.4853L28.1422 2.17157Z" fill="url(#paint2_linear_625_1619)"/>
<path d="M28.1422 30.4559C26.5801 32.0179 24.0474 32.0179 22.4853 30.4559C20.9232 28.8938 20.9232 26.3611 22.4853 24.799L33.799 13.4853C35.3611 11.9232 37.8938 11.9232 39.4559 13.4853C41.018 15.0474 41.018 17.58 39.4559 19.1421L28.1422 30.4559Z" fill="url(#paint3_linear_625_1619)"/>
<path d="M49.7394 27.3137V4.91371H57.5794L61.4514 24.4337H62.0274L65.8994 4.91371H73.7394V27.3137H69.6434V8.01771H69.0674L65.2274 27.3137H58.2514L54.4114 8.01771H53.8354V27.3137H49.7394ZM82.0542 27.7617C80.9235 27.7617 79.9102 27.5697 79.0142 27.1857C78.1182 26.7804 77.4035 26.2044 76.8702 25.4577C76.3582 24.6897 76.1022 23.7617 76.1022 22.6737C76.1022 21.5857 76.3582 20.679 76.8702 19.9537C77.4035 19.207 78.1289 18.6524 79.0462 18.2897C79.9849 17.9057 81.0515 17.7137 82.2462 17.7137H86.5982V16.8177C86.5982 16.071 86.3635 15.463 85.8942 14.9937C85.4249 14.503 84.6782 14.2577 83.6542 14.2577C82.6515 14.2577 81.9049 14.4924 81.4142 14.9617C80.9235 15.4097 80.6035 15.9964 80.4542 16.7217L76.7422 15.4737C76.9982 14.663 77.4035 13.927 77.9582 13.2657C78.5342 12.583 79.2915 12.039 80.2302 11.6337C81.1902 11.207 82.3529 10.9937 83.7182 10.9937C85.8089 10.9937 87.4622 11.5164 88.6782 12.5617C89.8942 13.607 90.5022 15.1217 90.5022 17.1057V23.0257C90.5022 23.6657 90.8009 23.9857 91.3982 23.9857H92.6782V27.3137H89.9902C89.2009 27.3137 88.5502 27.1217 88.0382 26.7377C87.5262 26.3537 87.2702 25.8417 87.2702 25.2017V25.1697H86.6622C86.5769 25.4257 86.3849 25.767 86.0862 26.1937C85.7875 26.599 85.3182 26.9617 84.6782 27.2817C84.0382 27.6017 83.1635 27.7617 82.0542 27.7617ZM82.7582 24.4977C83.8889 24.4977 84.8062 24.1884 85.5102 23.5697C86.2355 22.9297 86.5982 22.087 86.5982 21.0417V20.7217H82.5342C81.7875 20.7217 81.2009 20.8817 80.7742 21.2017C80.3475 21.5217 80.1342 21.9697 80.1342 22.5457C80.1342 23.1217 80.3582 23.591 80.8062 23.9537C81.2542 24.3164 81.9049 24.4977 82.7582 24.4977ZM94.6662 27.3137V4.91371H98.6982V17.2977H99.2742L104.522 11.4417H109.77L102.442 19.1217L110.026 27.3137H104.842L99.2742 21.0097H98.6982V27.3137H94.6662ZM118.032 27.7617C116.453 27.7617 115.056 27.431 113.84 26.7697C112.645 26.087 111.707 25.1377 111.024 23.9217C110.363 22.6844 110.032 21.2337 110.032 19.5697V19.1857C110.032 17.5217 110.363 16.0817 111.024 14.8657C111.685 13.6284 112.613 12.679 113.808 12.0177C115.003 11.335 116.389 10.9937 117.968 10.9937C119.525 10.9937 120.88 11.3457 122.032 12.0497C123.184 12.7324 124.08 13.6924 124.72 14.9297C125.36 16.1457 125.68 17.5644 125.68 19.1857V20.5617H114.128C114.171 21.6497 114.576 22.535 115.344 23.2177C116.112 23.9004 117.051 24.2417 118.16 24.2417C119.291 24.2417 120.123 23.9964 120.656 23.5057C121.189 23.015 121.595 22.471 121.872 21.8737L125.168 23.6017C124.869 24.1564 124.432 24.7644 123.856 25.4257C123.301 26.0657 122.555 26.6204 121.616 27.0897C120.677 27.5377 119.483 27.7617 118.032 27.7617ZM114.16 17.5537H121.584C121.499 16.6364 121.125 15.9004 120.464 15.3457C119.824 14.791 118.981 14.5137 117.936 14.5137C116.848 14.5137 115.984 14.791 115.344 15.3457C114.704 15.9004 114.309 16.6364 114.16 17.5537ZM128.181 27.3137V4.91371H132.405V27.3137H128.181ZM141.866 27.3137C140.821 27.3137 139.968 26.9937 139.306 26.3537C138.666 25.6924 138.346 24.8177 138.346 23.7297V14.7697H134.378V11.4417H138.346V6.51371H142.378V11.4417H146.73V14.7697H142.378V23.0257C142.378 23.6657 142.677 23.9857 143.274 23.9857H146.346V27.3137H141.866Z" fill="#111827"/>
<path d="M147.756 27.3137L153.644 4.91371H161.004L166.892 27.3137H162.54L161.324 22.3857H153.324L152.108 27.3137H147.756ZM154.316 18.4817H160.332L157.612 7.56971H157.036L154.316 18.4817ZM176.197 27.7617C174.661 27.7617 173.264 27.4417 172.005 26.8017C170.768 26.1617 169.787 25.2337 169.061 24.0177C168.336 22.8017 167.973 21.3297 167.973 19.6017V19.1537C167.973 17.4257 168.336 15.9537 169.061 14.7377C169.787 13.5217 170.768 12.5937 172.005 11.9537C173.264 11.3137 174.661 10.9937 176.197 10.9937C177.712 10.9937 179.013 11.2604 180.101 11.7937C181.189 12.327 182.064 13.063 182.725 14.0017C183.408 14.919 183.856 15.9644 184.069 17.1377L180.165 17.9697C180.08 17.3297 179.888 16.7537 179.589 16.2417C179.291 15.7297 178.864 15.3244 178.309 15.0257C177.776 14.727 177.104 14.5777 176.293 14.5777C175.483 14.5777 174.747 14.759 174.085 15.1217C173.445 15.463 172.933 15.9857 172.549 16.6897C172.187 17.3724 172.005 18.215 172.005 19.2177V19.5377C172.005 20.5404 172.187 21.3937 172.549 22.0977C172.933 22.7804 173.445 23.303 174.085 23.6657C174.747 24.007 175.483 24.1777 176.293 24.1777C177.509 24.1777 178.427 23.8684 179.045 23.2497C179.685 22.6097 180.091 21.7777 180.261 20.7537L184.165 21.6817C183.888 22.8124 183.408 23.847 182.725 24.7857C182.064 25.703 181.189 26.4284 180.101 26.9617C179.013 27.495 177.712 27.7617 176.197 27.7617ZM193.987 27.7617C192.451 27.7617 191.054 27.4417 189.795 26.8017C188.558 26.1617 187.577 25.2337 186.851 24.0177C186.126 22.8017 185.763 21.3297 185.763 19.6017V19.1537C185.763 17.4257 186.126 15.9537 186.851 14.7377C187.577 13.5217 188.558 12.5937 189.795 11.9537C191.054 11.3137 192.451 10.9937 193.987 10.9937C195.502 10.9937 196.803 11.2604 197.891 11.7937C198.979 12.327 199.854 13.063 200.515 14.0017C201.198 14.919 201.646 15.9644 201.859 17.1377L197.955 17.9697C197.87 17.3297 197.678 16.7537 197.379 16.2417C197.081 15.7297 196.654 15.3244 196.099 15.0257C195.566 14.727 194.894 14.5777 194.083 14.5777C193.273 14.5777 192.537 14.759 191.875 15.1217C191.235 15.463 190.723 15.9857 190.339 16.6897C189.977 17.3724 189.795 18.215 189.795 19.2177V19.5377C189.795 20.5404 189.977 21.3937 190.339 22.0977C190.723 22.7804 191.235 23.303 191.875 23.6657C192.537 24.007 193.273 24.1777 194.083 24.1777C195.299 24.1777 196.217 23.8684 196.835 23.2497C197.475 22.6097 197.881 21.7777 198.051 20.7537L201.955 21.6817C201.678 22.8124 201.198 23.847 200.515 24.7857C199.854 25.703 198.979 26.4284 197.891 26.9617C196.803 27.495 195.502 27.7617 193.987 27.7617ZM211.553 27.7617C209.975 27.7617 208.577 27.431 207.361 26.7697C206.167 26.087 205.228 25.1377 204.545 23.9217C203.884 22.6844 203.553 21.2337 203.553 19.5697V19.1857C203.553 17.5217 203.884 16.0817 204.545 14.8657C205.207 13.6284 206.135 12.679 207.329 12.0177C208.524 11.335 209.911 10.9937 211.489 10.9937C213.047 10.9937 214.401 11.3457 215.553 12.0497C216.705 12.7324 217.601 13.6924 218.241 14.9297C218.881 16.1457 219.201 17.5644 219.201 19.1857V20.5617H207.649C207.692 21.6497 208.097 22.535 208.865 23.2177C209.633 23.9004 210.572 24.2417 211.681 24.2417C212.812 24.2417 213.644 23.9964 214.177 23.5057C214.711 23.015 215.116 22.471 215.393 21.8737L218.689 23.6017C218.391 24.1564 217.953 24.7644 217.377 25.4257C216.823 26.0657 216.076 26.6204 215.137 27.0897C214.199 27.5377 213.004 27.7617 211.553 27.7617ZM207.681 17.5537H215.105C215.02 16.6364 214.647 15.9004 213.985 15.3457C213.345 14.791 212.503 14.5137 211.457 14.5137C210.369 14.5137 209.505 14.791 208.865 15.3457C208.225 15.9004 207.831 16.6364 207.681 17.5537ZM228.422 27.7617C226.353 27.7617 224.657 27.3137 223.334 26.4177C222.011 25.5217 221.211 24.2417 220.934 22.5777L224.646 21.6177C224.795 22.3644 225.041 22.951 225.382 23.3777C225.745 23.8044 226.182 24.1137 226.694 24.3057C227.227 24.4764 227.803 24.5617 228.422 24.5617C229.361 24.5617 230.054 24.4017 230.502 24.0817C230.95 23.7404 231.174 23.3244 231.174 22.8337C231.174 22.343 230.961 21.9697 230.534 21.7137C230.107 21.4364 229.425 21.2124 228.486 21.0417L227.59 20.8817C226.481 20.6684 225.467 20.3804 224.55 20.0177C223.633 19.6337 222.897 19.111 222.342 18.4497C221.787 17.7884 221.51 16.935 221.51 15.8897C221.51 14.311 222.086 13.1057 223.238 12.2737C224.39 11.4204 225.905 10.9937 227.782 10.9937C229.553 10.9937 231.025 11.3884 232.198 12.1777C233.371 12.967 234.139 14.0017 234.502 15.2817L230.758 16.4337C230.587 15.623 230.235 15.047 229.702 14.7057C229.19 14.3644 228.55 14.1937 227.782 14.1937C227.014 14.1937 226.427 14.3324 226.022 14.6097C225.617 14.8657 225.414 15.2284 225.414 15.6977C225.414 16.2097 225.627 16.5937 226.054 16.8497C226.481 17.0844 227.057 17.2657 227.782 17.3937L228.678 17.5537C229.873 17.767 230.95 18.055 231.91 18.4177C232.891 18.759 233.659 19.2604 234.214 19.9217C234.79 20.5617 235.078 21.4364 235.078 22.5457C235.078 24.2097 234.47 25.5004 233.254 26.4177C232.059 27.3137 230.449 27.7617 228.422 27.7617ZM244.243 27.7617C242.174 27.7617 240.478 27.3137 239.155 26.4177C237.833 25.5217 237.033 24.2417 236.755 22.5777L240.467 21.6177C240.617 22.3644 240.862 22.951 241.203 23.3777C241.566 23.8044 242.003 24.1137 242.515 24.3057C243.049 24.4764 243.625 24.5617 244.243 24.5617C245.182 24.5617 245.875 24.4017 246.323 24.0817C246.771 23.7404 246.995 23.3244 246.995 22.8337C246.995 22.343 246.782 21.9697 246.355 21.7137C245.929 21.4364 245.246 21.2124 244.307 21.0417L243.411 20.8817C242.302 20.6684 241.289 20.3804 240.371 20.0177C239.454 19.6337 238.718 19.111 238.163 18.4497C237.609 17.7884 237.331 16.935 237.331 15.8897C237.331 14.311 237.907 13.1057 239.059 12.2737C240.211 11.4204 241.726 10.9937 243.603 10.9937C245.374 10.9937 246.846 11.3884 248.019 12.1777C249.193 12.967 249.961 14.0017 250.323 15.2817L246.579 16.4337C246.409 15.623 246.057 15.047 245.523 14.7057C245.011 14.3644 244.371 14.1937 243.603 14.1937C242.835 14.1937 242.249 14.3324 241.843 14.6097C241.438 14.8657 241.235 15.2284 241.235 15.6977C241.235 16.2097 241.449 16.5937 241.875 16.8497C242.302 17.0844 242.878 17.2657 243.603 17.3937L244.499 17.5537C245.694 17.767 246.771 18.055 247.731 18.4177C248.713 18.759 249.481 19.2604 250.035 19.9217C250.611 20.5617 250.899 21.4364 250.899 22.5457C250.899 24.2097 250.291 25.5004 249.075 26.4177C247.881 27.3137 246.27 27.7617 244.243 27.7617ZM253.472 27.3137V11.4417H257.504V27.3137H253.472ZM255.488 9.58571C254.763 9.58571 254.144 9.35105 253.632 8.88171C253.142 8.41238 252.896 7.79371 252.896 7.02571C252.896 6.25771 253.142 5.63905 253.632 5.16971C254.144 4.70038 254.763 4.46571 255.488 4.46571C256.235 4.46571 256.854 4.70038 257.344 5.16971C257.835 5.63905 258.08 6.25771 258.08 7.02571C258.08 7.79371 257.835 8.41238 257.344 8.88171C256.854 9.35105 256.235 9.58571 255.488 9.58571ZM270.548 27.7617C269.119 27.7617 268.02 27.5164 267.252 27.0257C266.484 26.535 265.919 25.991 265.556 25.3937H264.98V27.3137H261.012V4.91371H265.044V13.2657H265.62C265.855 12.8817 266.164 12.519 266.548 12.1777C266.954 11.8364 267.476 11.559 268.116 11.3457C268.778 11.111 269.588 10.9937 270.548 10.9937C271.828 10.9937 273.012 11.3137 274.1 11.9537C275.188 12.5724 276.063 13.4897 276.724 14.7057C277.386 15.9217 277.716 17.3937 277.716 19.1217V19.6337C277.716 21.3617 277.386 22.8337 276.724 24.0497C276.063 25.2657 275.188 26.1937 274.1 26.8337C273.012 27.4524 271.828 27.7617 270.548 27.7617ZM269.332 24.2417C270.57 24.2417 271.604 23.847 272.436 23.0577C273.268 22.247 273.684 21.0737 273.684 19.5377V19.2177C273.684 17.6817 273.268 16.519 272.436 15.7297C271.626 14.919 270.591 14.5137 269.332 14.5137C268.095 14.5137 267.06 14.919 266.228 15.7297C265.396 16.519 264.98 17.6817 264.98 19.2177V19.5377C264.98 21.0737 265.396 22.247 266.228 23.0577C267.06 23.847 268.095 24.2417 269.332 24.2417ZM280.459 27.3137V4.91371H284.491V27.3137H280.459ZM295.231 27.7617C293.652 27.7617 292.255 27.431 291.039 26.7697C289.844 26.087 288.905 25.1377 288.223 23.9217C287.561 22.6844 287.231 21.2337 287.231 19.5697V19.1857C287.231 17.5217 287.561 16.0817 288.223 14.8657C288.884 13.6284 289.812 12.679 291.007 12.0177C292.201 11.335 293.588 10.9937 295.167 10.9937C296.724 10.9937 298.079 11.3457 299.231 12.0497C300.383 12.7324 301.279 13.6924 301.919 14.9297C302.559 16.1457 302.879 17.5644 302.879 19.1857V20.5617H291.327C291.369 21.6497 291.775 22.535 292.543 23.2177C293.311 23.9004 294.249 24.2417 295.359 24.2417C296.489 24.2417 297.321 23.9964 297.855 23.5057C298.388 23.015 298.793 22.471 299.071 21.8737L302.367 23.6017C302.068 24.1564 301.631 24.7644 301.055 25.4257C300.5 26.0657 299.753 26.6204 298.815 27.0897C297.876 27.5377 296.681 27.7617 295.231 27.7617ZM291.359 17.5537H298.783C298.697 16.6364 298.324 15.9004 297.663 15.3457C297.023 14.791 296.18 14.5137 295.135 14.5137C294.047 14.5137 293.183 14.791 292.543 15.3457C291.903 15.9004 291.508 16.6364 291.359 17.5537Z" fill="#DF54D3"/>
<defs>
<linearGradient id="paint0_linear_625_1619" x1="18.1421" y1="30.4558" x2="1.17158" y2="13.4853" gradientUnits="userSpaceOnUse">
<stop stop-color="#D319BB"/>
<stop offset="1" stop-color="#690BF9"/>
</linearGradient>
<linearGradient id="paint1_linear_625_1619" x1="18.1421" y1="2.17157" x2="1.17158" y2="19.1421" gradientUnits="userSpaceOnUse">
<stop stop-color="#DC22B1"/>
<stop offset="1" stop-color="#EC4285" stop-opacity="0.73"/>
</linearGradient>
<linearGradient id="paint2_linear_625_1619" x1="22.4853" y1="2.17157" x2="39.4559" y2="19.1421" gradientUnits="userSpaceOnUse">
<stop stop-color="#690BF9"/>
<stop offset="1" stop-color="#D319BB"/>
</linearGradient>
<linearGradient id="paint3_linear_625_1619" x1="22.4853" y1="30.4558" x2="39.4559" y2="13.4853" gradientUnits="userSpaceOnUse">
<stop stop-color="#EC4285"/>
<stop offset="1" stop-color="#DC22B1" stop-opacity="0.75"/>
</linearGradient>
</defs>
</svg>
