<svg width="31" height="24" viewBox="0 0 31 24" fill="none" xmlns="http://www.w3.org/2000/svg">
<path d="M9.52784 22.4785C10.7199 23.6706 12.6527 23.6706 13.8447 22.4785C15.0368 21.2864 15.0368 19.3537 13.8447 18.1616L5.21095 9.52785C4.01887 8.33577 2.08613 8.33577 0.894057 9.52785C-0.298019 10.7199 -0.298019 12.6527 0.894057 13.8447L9.52784 22.4785Z" fill="url(#paint0_linear_625_1556)"/>
<path d="M9.52784 0.894058C10.7199 -0.298019 12.6527 -0.298019 13.8447 0.894057C15.0368 2.08613 15.0368 4.01887 13.8447 5.21095L5.21095 13.8447C4.01887 15.0368 2.08613 15.0368 0.894057 13.8447C-0.298019 12.6527 -0.298019 10.7199 0.894057 9.52785L9.52784 0.894058Z" fill="url(#paint1_linear_625_1556)"/>
<path d="M21.476 0.894058C20.2839 -0.298019 18.3512 -0.298019 17.1591 0.894057C15.967 2.08613 15.967 4.01887 17.1591 5.21095L25.7929 13.8447C26.985 15.0368 28.9177 15.0368 30.1098 13.8447C31.3019 12.6527 31.3019 10.7199 30.1098 9.52784L21.476 0.894058Z" fill="url(#paint2_linear_625_1556)"/>
<path d="M21.476 22.4785C20.2839 23.6706 18.3512 23.6706 17.1591 22.4785C15.967 21.2864 15.967 19.3537 17.1591 18.1616L25.7929 9.52785C26.985 8.33577 28.9177 8.33576 30.1098 9.52784C31.3019 10.7199 31.3019 12.6527 30.1098 13.8447L21.476 22.4785Z" fill="url(#paint3_linear_625_1556)"/>
<defs>
<linearGradient id="paint0_linear_625_1556" x1="13.8447" y1="22.4785" x2="0.894067" y2="9.52784" gradientUnits="userSpaceOnUse">
<stop stop-color="#D319BB"/>
<stop offset="1" stop-color="#690BF9"/>
</linearGradient>
<linearGradient id="paint1_linear_625_1556" x1="13.8447" y1="0.894053" x2="0.894067" y2="13.8447" gradientUnits="userSpaceOnUse">
<stop stop-color="#DC22B1"/>
<stop offset="1" stop-color="#EC4285" stop-opacity="0.73"/>
</linearGradient>
<linearGradient id="paint2_linear_625_1556" x1="17.1591" y1="0.894052" x2="30.1098" y2="13.8447" gradientUnits="userSpaceOnUse">
<stop stop-color="#690BF9"/>
<stop offset="1" stop-color="#D319BB"/>
</linearGradient>
<linearGradient id="paint3_linear_625_1556" x1="17.1591" y1="22.4785" x2="30.1098" y2="9.52784" gradientUnits="userSpaceOnUse">
<stop stop-color="#EC4285"/>
<stop offset="1" stop-color="#DC22B1" stop-opacity="0.75"/>
</linearGradient>
</defs>
</svg>
